####
#
# OBJ File Generated by Meshlab
#
####
# Object 50deg.obj
#
# Vertices: 91
# Faces: 178
#
####
vn -0.2538849 -0.6839563 -0.6839198
v -1.4199533 -1.2000000 -1.2000000
vn -0.2538850 0.6839198 -0.6839562
v -1.4199533 1.2000000 -1.2000000
vn -0.6430712 -0.5415070 -0.5415069
v -0.0019534 -0.0016900 -0.0016900
vn -0.6430711 0.5415070 -0.5415070
v -0.0019534 0.0016901 -0.0016900
vn -0.2539461 -0.6839402 0.6839132
v -1.4199533 -1.2000000 1.2000000
vn -0.6430711 -0.5415069 0.5415070
v -0.0019534 -0.0016900 0.0016901
vn -0.2539462 0.6839132 0.6839402
v -1.4199533 1.2000000 1.2000000
vn -0.6430712 0.5415069 0.5415069
v -0.0019534 0.0016901 0.0016901
vn -0.8821850 -0.3329787 0.3329787
v -0.0019534 0.0015593 -0.0015591
vn -0.9842522 -0.1249915 0.1249990
v -1.4199533 1.1998692 -1.1998690
vn -0.8821850 0.3329787 0.3329787
v -0.0019534 -0.0015591 -0.0015591
vn -0.9842528 0.1249936 0.1249923
v -1.4199533 -1.1998690 -1.1998690
vn -0.8821850 0.3329787 -0.3329787
v -0.0019534 -0.0015591 0.0015593
vn -0.9842528 0.1249923 -0.1249937
v -1.4199533 -1.1998690 1.1998692
vn -0.8821850 -0.3329787 -0.3329787
v -0.0019534 0.0015593 0.0015593
vn -0.9842528 -0.1249936 -0.1249922
v -1.4199533 1.1998692 1.1998692
vn -0.6885017 0.1827598 0.7018293
v -0.0019534 0.0012599 0.0048387
vn -0.6885149 0.2987325 0.6608375
v -0.0019534 0.0020596 0.0045562
vn -0.6885090 0.4060972 0.6008664
v -0.0019534 0.0028000 0.0041426
vn -0.6885071 0.7089609 -0.1527499
v -0.0019534 0.0048878 -0.0010533
vn -0.6884949 0.6729418 -0.2704148
v -0.0019534 0.0046395 -0.0018642
vn -0.6885195 0.6175401 -0.3802437
v -0.0019534 0.0042577 -0.0026214
vn -0.6884981 0.5444158 -0.4791471
v -0.0019534 0.0037534 -0.0033033
vn -0.6885076 0.5018011 0.5235962
v -0.0019534 0.0034597 0.0036099
vn -0.6885101 0.5830652 0.4312643
v -0.0019534 0.0040200 0.0029733
vn -0.6884941 0.6475933 0.3264948
v -0.0019534 0.0044647 0.0022511
vn -0.6885229 0.6934285 0.2123516
v -0.0019534 0.0047809 0.0014641
vn -0.6884884 0.7193760 0.0920970
v -0.0019534 0.0049596 0.0006351
vn -0.6885273 0.7245561 -0.0308010
v -0.0019534 0.0049955 -0.0002122
vn -0.6885090 -0.4060972 0.6008664
v -0.0019534 -0.0027997 0.0041426
vn -0.6885199 -0.2987464 0.6608260
v -0.0019534 -0.0020595 0.0045562
vn -0.6884941 -0.6475933 0.3264948
v -0.0019534 -0.0044646 0.0022511
vn -0.6885101 -0.5830652 0.4312643
v -0.0019534 -0.0040199 0.0029733
vn -0.6885076 -0.5018011 0.5235962
v -0.0019534 -0.0034596 0.0036099
vn -0.6885079 0.4555775 -0.5642747
v -0.0019534 0.0031412 -0.0038902
vn -0.6885217 0.3536972 -0.6331162
v -0.0019534 0.0024385 -0.0043650
vn -0.6884907 0.2416122 -0.6838158
v -0.0019534 0.0016658 -0.0047144
vn -0.6884940 -0.1827699 0.7018342
v -0.0019534 -0.0012599 0.0048387
vn -0.6885110 -0.0614928 0.7226142
v -0.0019534 -0.0004239 0.0049821
vn -0.6885083 0.0615018 0.7226160
v -0.0019534 0.0004240 0.0049821
vn -0.6885087 -0.5444320 -0.4791133
v -0.0019534 -0.0037533 -0.0033033
vn -0.6885195 -0.6175401 -0.3802437
v -0.0019534 -0.0042576 -0.0026214
vn -0.6884949 -0.6729418 -0.2704148
v -0.0019534 -0.0046394 -0.0018642
vn -0.6885222 -0.7089359 -0.1527975
v -0.0019534 -0.0048877 -0.0010533
vn -0.6885274 0.1225739 -0.7147767
v -0.0019534 0.0008451 -0.0049280
vn -0.6884831 -0.0000044 -0.7252524
v -0.0019534 0.0000000 -0.0050000
vn -0.6885287 -0.1225780 -0.7147747
v -0.0019534 -0.0008450 -0.0049280
vn -0.6884969 -0.2415900 -0.6838174
v -0.0019534 -0.0016656 -0.0047144
vn -0.6884968 -0.7245851 -0.0308019
v -0.0019534 -0.0049955 -0.0002122
vn -0.6885037 -0.7193551 0.0921469
v -0.0019534 -0.0049595 0.0006351
vn -0.6885230 -0.6934284 0.2123516
v -0.0019534 -0.0047808 0.0014641
vn -0.6885154 -0.3536814 -0.6331319
v -0.0019534 -0.0024384 -0.0043650
vn -0.6884973 -0.4556119 -0.5642599
v -0.0019534 -0.0031410 -0.0038902
vn 0.6884831 -0.0000044 -0.7252524
v 0.0000465 0.0000000 -0.0050000
vn 0.6885275 0.1225738 -0.7147766
v 0.0000465 0.0008451 -0.0049280
vn 0.6884907 0.2416122 -0.6838159
v 0.0000465 0.0016658 -0.0047144
vn 0.6885218 0.3536972 -0.6331162
v 0.0000465 0.0024385 -0.0043650
vn 0.6885080 0.4555775 -0.5642748
v 0.0000465 0.0031412 -0.0038902
vn 0.6884981 0.5444158 -0.4791471
v 0.0000465 0.0037534 -0.0033033
vn 0.6885195 0.6175401 -0.3802437
v 0.0000465 0.0042577 -0.0026214
vn 0.6884949 0.6729418 -0.2704148
v 0.0000465 0.0046395 -0.0018642
vn 0.6885070 0.7089609 -0.1527499
v 0.0000465 0.0048878 -0.0010533
vn 0.6885273 0.7245561 -0.0308010
v 0.0000465 0.0049955 -0.0002122
vn 0.6884883 0.7193761 0.0920970
v 0.0000465 0.0049596 0.0006351
vn 0.6885230 0.6934284 0.2123516
v 0.0000465 0.0047809 0.0014641
vn 0.6884941 0.6475933 0.3264948
v 0.0000465 0.0044647 0.0022511
vn 0.6885101 0.5830652 0.4312643
v 0.0000465 0.0040200 0.0029733
vn 0.6885076 0.5018011 0.5235962
v 0.0000465 0.0034597 0.0036099
vn 0.6885090 0.4060972 0.6008664
v 0.0000465 0.0028000 0.0041426
vn 0.6885149 0.2987325 0.6608375
v 0.0000465 0.0020596 0.0045562
vn 0.6885017 0.1827598 0.7018293
v 0.0000465 0.0012599 0.0048387
vn 0.6885083 0.0615018 0.7226160
v 0.0000465 0.0004240 0.0049821
vn 0.6885109 -0.0614928 0.7226143
v 0.0000465 -0.0004239 0.0049821
vn 0.6884940 -0.1827699 0.7018342
v 0.0000465 -0.0012599 0.0048387
vn 0.6885199 -0.2987464 0.6608260
v 0.0000465 -0.0020595 0.0045562
vn 0.6885090 -0.4060972 0.6008664
v 0.0000465 -0.0027997 0.0041426
vn 0.6885076 -0.5018012 0.5235962
v 0.0000465 -0.0034596 0.0036099
vn 0.6885101 -0.5830652 0.4312643
v 0.0000465 -0.0040199 0.0029733
vn 0.6884941 -0.6475933 0.3264948
v 0.0000465 -0.0044646 0.0022511
vn 0.6885229 -0.6934285 0.2123516
v 0.0000465 -0.0047808 0.0014641
vn 0.6885037 -0.7193551 0.0921469
v 0.0000465 -0.0049595 0.0006351
vn 0.6884968 -0.7245851 -0.0308019
v 0.0000465 -0.0049955 -0.0002122
vn 0.6885222 -0.7089359 -0.1527975
v 0.0000465 -0.0048877 -0.0010533
vn 0.6884949 -0.6729418 -0.2704148
v 0.0000465 -0.0046394 -0.0018642
vn 0.6885195 -0.6175401 -0.3802437
v 0.0000465 -0.0042576 -0.0026214
vn 0.6885087 -0.5444320 -0.4791133
v 0.0000465 -0.0037533 -0.0033033
vn 0.6884974 -0.4556119 -0.5642599
v 0.0000465 -0.0031410 -0.0038902
vn 0.6885154 -0.3536813 -0.6331319
v 0.0000465 -0.0024384 -0.0043650
vn 0.6884969 -0.2415900 -0.6838174
v 0.0000465 -0.0016656 -0.0047144
vn 0.6885287 -0.1225780 -0.7147747
v 0.0000465 -0.0008450 -0.0049280
vn 1.0000000 0.0000000 0.0000000
v 0.0000465 0.0000000 0.0000000
# 91 vertices, 0 vertices normals

f 1//1 2//2 3//3
f 3//3 2//2 4//4
f 5//5 1//1 6//6
f 6//6 1//1 3//3
f 2//2 7//7 4//4
f 4//4 7//7 8//8
f 7//7 5//5 8//8
f 8//8 5//5 6//6
f 9//9 10//10 11//11
f 11//11 10//10 12//12
f 11//11 12//12 13//13
f 13//13 12//12 14//14
f 15//15 16//16 9//9
f 9//9 16//16 10//10
f 13//13 14//14 15//15
f 15//15 14//14 16//16
f 10//10 2//2 12//12
f 12//12 2//2 1//1
f 12//12 1//1 14//14
f 14//14 1//1 5//5
f 14//14 5//5 16//16
f 16//16 5//5 7//7
f 16//16 7//7 10//10
f 10//10 7//7 2//2
f 13//13 15//15 11//11
f 11//11 15//15 9//9
f 17//17 18//18 8//8
f 8//8 18//18 19//19
f 20//20 21//21 4//4
f 4//4 21//21 22//22
f 4//4 22//22 23//23
f 19//19 24//24 8//8
f 8//8 24//24 25//25
f 8//8 25//25 26//26
f 26//26 27//27 8//8
f 8//8 27//27 28//28
f 8//8 28//28 4//4
f 4//4 28//28 29//29
f 4//4 29//29 20//20
f 6//6 30//30 31//31
f 32//32 33//33 6//6
f 6//6 33//33 34//34
f 6//6 34//34 30//30
f 23//23 35//35 4//4
f 4//4 35//35 36//36
f 4//4 36//36 37//37
f 31//31 38//38 6//6
f 6//6 38//38 39//39
f 6//6 39//39 8//8
f 8//8 39//39 40//40
f 8//8 40//40 17//17
f 41//41 42//42 3//3
f 3//3 42//42 43//43
f 3//3 43//43 44//44
f 37//37 45//45 4//4
f 4//4 45//45 46//46
f 4//4 46//46 3//3
f 3//3 46//46 47//47
f 3//3 47//47 48//48
f 44//44 49//49 3//3
f 3//3 49//49 50//50
f 3//3 50//50 6//6
f 6//6 50//50 51//51
f 6//6 51//51 32//32
f 48//48 52//52 3//3
f 3//3 52//52 53//53
f 3//3 53//53 41//41
f 54//54 45//45 55//55
f 55//55 45//45 37//37
f 55//55 37//37 56//56
f 56//56 37//37 36//36
f 56//56 36//36 57//57
f 57//57 36//36 35//35
f 57//57 35//35 58//58
f 58//58 35//35 23//23
f 58//58 23//23 59//59
f 59//59 23//23 22//22
f 59//59 22//22 60//60
f 60//60 22//22 21//21
f 60//60 21//21 61//61
f 61//61 21//21 20//20
f 61//61 20//20 62//62
f 62//62 20//20 29//29
f 62//62 29//29 63//63
f 63//63 29//29 28//28
f 63//63 28//28 64//64
f 64//64 28//28 27//27
f 64//64 27//27 65//65
f 65//65 27//27 26//26
f 65//65 26//26 66//66
f 66//66 26//26 25//25
f 66//66 25//25 67//67
f 67//67 25//25 24//24
f 67//67 24//24 68//68
f 68//68 24//24 19//19
f 68//68 19//19 69//69
f 69//69 19//19 18//18
f 69//69 18//18 70//70
f 70//70 18//18 17//17
f 70//70 17//17 71//71
f 71//71 17//17 40//40
f 71//71 40//40 72//72
f 72//72 40//40 39//39
f 72//72 39//39 73//73
f 73//73 39//39 38//38
f 73//73 38//38 74//74
f 74//74 38//38 31//31
f 74//74 31//31 75//75
f 75//75 31//31 30//30
f 75//75 30//30 76//76
f 76//76 30//30 34//34
f 76//76 34//34 77//77
f 77//77 34//34 33//33
f 77//77 33//33 78//78
f 78//78 33//33 32//32
f 78//78 32//32 79//79
f 79//79 32//32 51//51
f 79//79 51//51 80//80
f 80//80 51//51 50//50
f 80//80 50//50 81//81
f 81//81 50//50 49//49
f 81//81 49//49 82//82
f 82//82 49//49 44//44
f 82//82 44//44 83//83
f 83//83 44//44 43//43
f 83//83 43//43 84//84
f 84//84 43//43 42//42
f 84//84 42//42 85//85
f 85//85 42//42 41//41
f 85//85 41//41 86//86
f 86//86 41//41 53//53
f 86//86 53//53 87//87
f 87//87 53//53 52//52
f 87//87 52//52 88//88
f 88//88 52//52 48//48
f 88//88 48//48 89//89
f 89//89 48//48 47//47
f 89//89 47//47 90//90
f 90//90 47//47 46//46
f 90//90 46//46 54//54
f 54//54 46//46 45//45
f 54//54 55//55 91//91
f 88//88 89//89 91//91
f 91//91 89//89 90//90
f 91//91 90//90 54//54
f 85//85 86//86 91//91
f 91//91 86//86 87//87
f 91//91 87//87 88//88
f 82//82 83//83 91//91
f 91//91 83//83 84//84
f 91//91 84//84 85//85
f 79//79 80//80 91//91
f 91//91 80//80 81//81
f 91//91 81//81 82//82
f 76//76 77//77 91//91
f 91//91 77//77 78//78
f 91//91 78//78 79//79
f 73//73 74//74 91//91
f 91//91 74//74 75//75
f 91//91 75//75 76//76
f 70//70 71//71 91//91
f 91//91 71//71 72//72
f 91//91 72//72 73//73
f 67//67 68//68 91//91
f 91//91 68//68 69//69
f 91//91 69//69 70//70
f 64//64 65//65 91//91
f 91//91 65//65 66//66
f 91//91 66//66 67//67
f 61//61 62//62 91//91
f 91//91 62//62 63//63
f 91//91 63//63 64//64
f 58//58 59//59 91//91
f 91//91 59//59 60//60
f 91//91 60//60 61//61
f 55//55 56//56 91//91
f 91//91 56//56 57//57
f 91//91 57//57 58//58
# 178 faces, 0 coords texture

# End of File
