####
#
# OBJ File Generated by Meshlab
#
####
# Object 65deg.obj
#
# Vertices: 91
# Faces: 178
#
####
vn -0.1601941 -0.6979677 -0.6979821
v -0.7999533 -1.2000000 -1.2000000
vn -0.1601635 0.6979759 -0.6979809
v -0.7999533 1.2000000 -1.2000000
vn -0.4690518 -0.6244960 -0.6244960
v -0.0019535 -0.0030000 -0.0030000
vn -0.4690520 0.6244959 -0.6244959
v -0.0019535 0.0030000 -0.0030000
vn -0.1601636 -0.6979759 0.6979809
v -0.7999533 -1.2000000 1.2000000
vn -0.4690520 -0.6244959 0.6244959
v -0.0019535 -0.0030000 0.0030000
vn -0.1601935 0.6979678 0.6979821
v -0.7999533 1.2000000 1.2000000
vn -0.4690529 0.6244956 0.6244956
v -0.0019535 0.0030000 0.0030000
vn -0.9488556 -0.2232410 0.2232411
v -0.0019535 0.0028198 -0.0028197
vn -0.9938464 -0.0783252 0.0783233
v -0.7999533 1.1998198 -1.1998197
vn -0.9488556 0.2232411 0.2232411
v -0.0019535 -0.0028197 -0.0028197
vn -0.9938462 0.0783253 0.0783250
v -0.7999533 -1.1998197 -1.1998197
vn -0.9488556 0.2232411 -0.2232411
v -0.0019535 -0.0028197 0.0028198
vn -0.9938462 0.0783250 -0.0783253
v -0.7999533 -1.1998197 1.1998198
vn -0.9488556 -0.2232411 -0.2232410
v -0.0019535 0.0028198 0.0028198
vn -0.9938464 -0.0783233 -0.0783252
v -0.7999533 1.1998198 1.1998198
vn -0.6885090 -0.4060972 0.6008664
v -0.0019535 -0.0027997 0.0041426
vn -0.6885200 -0.2987464 0.6608259
v -0.0019535 -0.0020595 0.0045562
vn -0.6885087 -0.5444320 -0.4791133
v -0.0019535 -0.0037533 -0.0033033
vn -0.6885195 -0.6175401 -0.3802436
v -0.0019535 -0.0042576 -0.0026214
vn -0.6885076 0.5018011 0.5235961
v -0.0019535 0.0034597 0.0036099
vn -0.6885100 0.5830652 0.4312643
v -0.0019535 0.0040200 0.0029733
vn -0.6884884 0.7193760 0.0920970
v -0.0019535 0.0049596 0.0006351
vn -0.6885273 0.7245560 -0.0308010
v -0.0019535 0.0049955 -0.0002122
vn -0.6885071 0.7089608 -0.1527499
v -0.0019535 0.0048878 -0.0010533
vn -0.6884940 -0.1827699 0.7018343
v -0.0019535 -0.0012599 0.0048387
vn -0.6885109 -0.0614928 0.7226143
v -0.0019535 -0.0004239 0.0049821
vn -0.6885083 0.0615018 0.7226160
v -0.0019535 0.0004240 0.0049821
vn -0.6885017 0.1827597 0.7018293
v -0.0019535 0.0012599 0.0048387
vn -0.6885148 0.2987326 0.6608375
v -0.0019535 0.0020596 0.0045562
vn -0.6885090 0.4060972 0.6008664
v -0.0019535 0.0028000 0.0041426
vn -0.6884941 -0.6475933 0.3264948
v -0.0019535 -0.0044646 0.0022511
vn -0.6885101 -0.5830652 0.4312643
v -0.0019535 -0.0040199 0.0029733
vn -0.6885076 -0.5018011 0.5235962
v -0.0019535 -0.0034596 0.0036099
vn -0.6885080 0.4555774 -0.5642747
v -0.0019535 0.0031412 -0.0038902
vn -0.6885218 0.3536972 -0.6331162
v -0.0019535 0.0024385 -0.0043650
vn -0.6884907 0.2416123 -0.6838159
v -0.0019535 0.0016658 -0.0047144
vn -0.6885274 0.1225739 -0.7147767
v -0.0019535 0.0008451 -0.0049280
vn -0.6884941 0.6475933 0.3264948
v -0.0019535 0.0044647 0.0022511
vn -0.6885229 0.6934285 0.2123516
v -0.0019535 0.0047809 0.0014641
vn -0.6884949 0.6729418 -0.2704147
v -0.0019535 0.0046395 -0.0018642
vn -0.6885195 0.6175401 -0.3802437
v -0.0019535 0.0042577 -0.0026214
vn -0.6884981 0.5444158 -0.4791471
v -0.0019535 0.0037534 -0.0033033
vn -0.6884831 -0.0000044 -0.7252524
v -0.0019535 0.0000000 -0.0050000
vn -0.6885287 -0.1225780 -0.7147747
v -0.0019535 -0.0008450 -0.0049280
vn -0.6884969 -0.2415900 -0.6838174
v -0.0019535 -0.0016656 -0.0047144
vn -0.6884949 -0.6729418 -0.2704148
v -0.0019535 -0.0046394 -0.0018642
vn -0.6885223 -0.7089359 -0.1527975
v -0.0019535 -0.0048877 -0.0010533
vn -0.6884968 -0.7245851 -0.0308019
v -0.0019535 -0.0049955 -0.0002122
vn -0.6885036 -0.7193551 0.0921469
v -0.0019535 -0.0049595 0.0006351
vn -0.6885229 -0.6934285 0.2123516
v -0.0019535 -0.0047808 0.0014641
vn -0.6885154 -0.3536813 -0.6331319
v -0.0019535 -0.0024384 -0.0043650
vn -0.6884974 -0.4556119 -0.5642599
v -0.0019535 -0.0031410 -0.0038902
vn 0.6884831 -0.0000044 -0.7252524
v 0.0000467 0.0000000 -0.0050000
vn 0.6885274 0.1225739 -0.7147767
v 0.0000467 0.0008451 -0.0049280
vn 0.6884907 0.2416122 -0.6838158
v 0.0000467 0.0016658 -0.0047144
vn 0.6885218 0.3536972 -0.6331162
v 0.0000467 0.0024385 -0.0043650
vn 0.6885080 0.4555775 -0.5642748
v 0.0000467 0.0031412 -0.0038902
vn 0.6884981 0.5444158 -0.4791471
v 0.0000467 0.0037534 -0.0033033
vn 0.6885195 0.6175401 -0.3802436
v 0.0000467 0.0042577 -0.0026214
vn 0.6884949 0.6729418 -0.2704148
v 0.0000467 0.0046395 -0.0018642
vn 0.6885071 0.7089608 -0.1527499
v 0.0000467 0.0048878 -0.0010533
vn 0.6885273 0.7245560 -0.0308010
v 0.0000467 0.0049955 -0.0002122
vn 0.6884882 0.7193761 0.0920970
v 0.0000467 0.0049596 0.0006351
vn 0.6885229 0.6934285 0.2123516
v 0.0000467 0.0047809 0.0014641
vn 0.6884941 0.6475933 0.3264948
v 0.0000467 0.0044647 0.0022511
vn 0.6885101 0.5830652 0.4312643
v 0.0000467 0.0040200 0.0029733
vn 0.6885076 0.5018011 0.5235962
v 0.0000467 0.0034597 0.0036099
vn 0.6885090 0.4060972 0.6008664
v 0.0000467 0.0028000 0.0041426
vn 0.6885149 0.2987325 0.6608375
v 0.0000467 0.0020596 0.0045562
vn 0.6885017 0.1827598 0.7018293
v 0.0000467 0.0012599 0.0048387
vn 0.6885083 0.0615018 0.7226160
v 0.0000467 0.0004240 0.0049821
vn 0.6885109 -0.0614928 0.7226143
v 0.0000467 -0.0004239 0.0049821
vn 0.6884940 -0.1827699 0.7018342
v 0.0000467 -0.0012599 0.0048387
vn 0.6885200 -0.2987464 0.6608260
v 0.0000467 -0.0020595 0.0045562
vn 0.6885090 -0.4060972 0.6008664
v 0.0000467 -0.0027997 0.0041426
vn 0.6885076 -0.5018011 0.5235962
v 0.0000467 -0.0034596 0.0036099
vn 0.6885101 -0.5830652 0.4312643
v 0.0000467 -0.0040199 0.0029733
vn 0.6884941 -0.6475933 0.3264948
v 0.0000467 -0.0044646 0.0022511
vn 0.6885229 -0.6934285 0.2123516
v 0.0000467 -0.0047808 0.0014641
vn 0.6885037 -0.7193551 0.0921469
v 0.0000467 -0.0049595 0.0006351
vn 0.6884968 -0.7245851 -0.0308019
v 0.0000467 -0.0049955 -0.0002122
vn 0.6885223 -0.7089359 -0.1527975
v 0.0000467 -0.0048877 -0.0010533
vn 0.6884949 -0.6729418 -0.2704147
v 0.0000467 -0.0046394 -0.0018642
vn 0.6885195 -0.6175401 -0.3802437
v 0.0000467 -0.0042576 -0.0026214
vn 0.6885087 -0.5444320 -0.4791133
v 0.0000467 -0.0037533 -0.0033033
vn 0.6884974 -0.4556119 -0.5642599
v 0.0000467 -0.0031410 -0.0038902
vn 0.6885154 -0.3536814 -0.6331319
v 0.0000467 -0.0024384 -0.0043650
vn 0.6884969 -0.2415900 -0.6838174
v 0.0000467 -0.0016656 -0.0047144
vn 0.6885287 -0.1225780 -0.7147747
v 0.0000467 -0.0008450 -0.0049280
vn 1.0000000 0.0000000 0.0000000
v 0.0000467 0.0000000 0.0000000
# 91 vertices, 0 vertices normals

f 1//1 2//2 3//3
f 3//3 2//2 4//4
f 5//5 1//1 6//6
f 6//6 1//1 3//3
f 2//2 7//7 4//4
f 4//4 7//7 8//8
f 7//7 5//5 8//8
f 8//8 5//5 6//6
f 9//9 10//10 11//11
f 11//11 10//10 12//12
f 11//11 12//12 13//13
f 13//13 12//12 14//14
f 15//15 16//16 9//9
f 9//9 16//16 10//10
f 13//13 14//14 15//15
f 15//15 14//14 16//16
f 10//10 2//2 12//12
f 12//12 2//2 1//1
f 12//12 1//1 14//14
f 14//14 1//1 5//5
f 14//14 5//5 16//16
f 16//16 5//5 7//7
f 16//16 7//7 10//10
f 10//10 7//7 2//2
f 13//13 15//15 11//11
f 11//11 15//15 9//9
f 6//6 17//17 18//18
f 3//3 19//19 6//6
f 6//6 19//19 20//20
f 8//8 21//21 22//22
f 23//23 24//24 8//8
f 8//8 24//24 25//25
f 18//18 26//26 6//6
f 6//6 26//26 27//27
f 6//6 27//27 28//28
f 28//28 29//29 6//6
f 6//6 29//29 30//30
f 6//6 30//30 8//8
f 8//8 30//30 31//31
f 8//8 31//31 21//21
f 32//32 33//33 6//6
f 6//6 33//33 34//34
f 6//6 34//34 17//17
f 3//3 4//4 35//35
f 35//35 36//36 3//3
f 3//3 36//36 37//37
f 3//3 37//37 38//38
f 22//22 39//39 8//8
f 8//8 39//39 40//40
f 8//8 40//40 23//23
f 25//25 41//41 8//8
f 8//8 41//41 42//42
f 8//8 42//42 4//4
f 4//4 42//42 43//43
f 4//4 43//43 35//35
f 38//38 44//44 3//3
f 3//3 44//44 45//45
f 3//3 45//45 46//46
f 20//20 47//47 6//6
f 6//6 47//47 48//48
f 6//6 48//48 49//49
f 49//49 50//50 6//6
f 6//6 50//50 51//51
f 6//6 51//51 32//32
f 46//46 52//52 3//3
f 3//3 52//52 53//53
f 3//3 53//53 19//19
f 54//54 38//38 55//55
f 55//55 38//38 37//37
f 55//55 37//37 56//56
f 56//56 37//37 36//36
f 56//56 36//36 57//57
f 57//57 36//36 35//35
f 57//57 35//35 58//58
f 58//58 35//35 43//43
f 58//58 43//43 59//59
f 59//59 43//43 42//42
f 59//59 42//42 60//60
f 60//60 42//42 41//41
f 60//60 41//41 61//61
f 61//61 41//41 25//25
f 61//61 25//25 62//62
f 62//62 25//25 24//24
f 62//62 24//24 63//63
f 63//63 24//24 23//23
f 63//63 23//23 64//64
f 64//64 23//23 40//40
f 64//64 40//40 65//65
f 65//65 40//40 39//39
f 65//65 39//39 66//66
f 66//66 39//39 22//22
f 66//66 22//22 67//67
f 67//67 22//22 21//21
f 67//67 21//21 68//68
f 68//68 21//21 31//31
f 68//68 31//31 69//69
f 69//69 31//31 30//30
f 69//69 30//30 70//70
f 70//70 30//30 29//29
f 70//70 29//29 71//71
f 71//71 29//29 28//28
f 71//71 28//28 72//72
f 72//72 28//28 27//27
f 72//72 27//27 73//73
f 73//73 27//27 26//26
f 73//73 26//26 74//74
f 74//74 26//26 18//18
f 74//74 18//18 75//75
f 75//75 18//18 17//17
f 75//75 17//17 76//76
f 76//76 17//17 34//34
f 76//76 34//34 77//77
f 77//77 34//34 33//33
f 77//77 33//33 78//78
f 78//78 33//33 32//32
f 78//78 32//32 79//79
f 79//79 32//32 51//51
f 79//79 51//51 80//80
f 80//80 51//51 50//50
f 80//80 50//50 81//81
f 81//81 50//50 49//49
f 81//81 49//49 82//82
f 82//82 49//49 48//48
f 82//82 48//48 83//83
f 83//83 48//48 47//47
f 83//83 47//47 84//84
f 84//84 47//47 20//20
f 84//84 20//20 85//85
f 85//85 20//20 19//19
f 85//85 19//19 86//86
f 86//86 19//19 53//53
f 86//86 53//53 87//87
f 87//87 53//53 52//52
f 87//87 52//52 88//88
f 88//88 52//52 46//46
f 88//88 46//46 89//89
f 89//89 46//46 45//45
f 89//89 45//45 90//90
f 90//90 45//45 44//44
f 90//90 44//44 54//54
f 54//54 44//44 38//38
f 54//54 55//55 91//91
f 88//88 89//89 91//91
f 91//91 89//89 90//90
f 91//91 90//90 54//54
f 85//85 86//86 91//91
f 91//91 86//86 87//87
f 91//91 87//87 88//88
f 82//82 83//83 91//91
f 91//91 83//83 84//84
f 91//91 84//84 85//85
f 79//79 80//80 91//91
f 91//91 80//80 81//81
f 91//91 81//81 82//82
f 76//76 77//77 91//91
f 91//91 77//77 78//78
f 91//91 78//78 79//79
f 73//73 74//74 91//91
f 91//91 74//74 75//75
f 91//91 75//75 76//76
f 70//70 71//71 91//91
f 91//91 71//71 72//72
f 91//91 72//72 73//73
f 67//67 68//68 91//91
f 91//91 68//68 69//69
f 91//91 69//69 70//70
f 64//64 65//65 91//91
f 91//91 65//65 66//66
f 91//91 66//66 67//67
f 61//61 62//62 91//91
f 91//91 62//62 63//63
f 91//91 63//63 64//64
f 58//58 59//59 91//91
f 91//91 59//59 60//60
f 91//91 60//60 61//61
f 55//55 56//56 91//91
f 91//91 56//56 57//57
f 91//91 57//57 58//58
# 178 faces, 0 coords texture

# End of File
