####
#
# OBJ File Generated by Meshlab
#
####
# Object 75deg.obj
#
# Vertices: 220
# Faces: 436
#
####
vn -0.9978921 -0.0459105 0.0458646
v -0.4499534 1.1997154 -1.1997153
vn -0.0911488 0.7045273 -0.7037991
v -0.4499534 1.2000000 -1.2000000
vn -0.9978892 0.0459183 0.0459204
v -0.4499534 -1.1997153 -1.1997153
vn -0.0918937 -0.7035755 -0.7046539
v -0.4499534 -1.2000000 -1.2000000
vn -0.9978929 0.0459266 -0.0458328
v -0.4499534 -1.1997153 1.1997154
vn -0.0931579 -0.7039338 0.7041298
v -0.4499534 -1.2000000 1.2000000
vn -0.9978900 -0.0458923 -0.0459292
v -0.4499534 1.1997154 1.1997154
vn -0.0957282 0.7042332 0.7034854
v -0.4499534 1.2000000 1.2000000
vn 0.6023820 -0.3688730 -0.7078620
v -0.0014123 -0.0031410 -0.0038902
vn 0.5508084 -0.5843095 -0.5959803
v -0.0012794 -0.0035355 -0.0035355
vn 0.5557444 0.5777556 -0.5977848
v -0.0012794 0.0035355 -0.0035355
vn 0.6048397 0.3701035 -0.7051187
v -0.0014123 0.0031412 -0.0038902
vn 0.5818285 0.0999100 -0.8071516
v -0.0018016 0.0008451 -0.0049280
vn 0.5814949 0.0501925 -0.8120003
v -0.0018218 0.0004240 -0.0049819
vn 0.5809118 -0.0000768 -0.8139666
v -0.0018286 0.0000000 -0.0050000
vn 0.5815224 -0.0500591 -0.8119888
v -0.0018218 -0.0004239 -0.0049819
vn 0.5875552 0.2462042 -0.7708193
v -0.0016620 0.0020596 -0.0045562
vn 0.5847208 0.1982501 -0.7866375
v -0.0017214 0.0016658 -0.0047144
vn 0.5835685 0.1492798 -0.7982252
v -0.0017680 0.0012599 -0.0048386
vn 0.5818229 -0.0999940 -0.8071452
v -0.0018016 -0.0008450 -0.0049280
vn 0.5835829 -0.1492561 -0.7982190
v -0.0017680 -0.0012599 -0.0048386
vn 0.5847163 -0.1982809 -0.7866331
v -0.0017214 -0.0016656 -0.0047144
vn 0.5958074 0.3005671 -0.7447637
v -0.0015904 0.0024385 -0.0043650
vn 0.5876558 -0.2462025 -0.7707432
v -0.0016620 -0.0020595 -0.0045562
vn 0.5957674 -0.3006142 -0.7447768
v -0.0015904 -0.0024384 -0.0043650
vn 0.6012833 -0.6987327 -0.3875964
v -0.0013610 -0.0037533 -0.0033033
vn 0.5818402 -0.8098262 -0.0751232
v -0.0018133 -0.0049595 -0.0006350
vn 0.5809135 -0.8135810 -0.0250116
v -0.0018269 -0.0049955 -0.0002122
vn 0.5823516 -0.8033150 -0.1247064
v -0.0017865 -0.0048877 -0.0010533
vn 0.5814242 -0.8132155 0.0250316
v -0.0018269 -0.0049955 0.0002123
vn 0.5813349 -0.8101938 0.0750726
v -0.0018133 -0.0049595 0.0006351
vn 0.5829372 -0.8028850 0.1247397
v -0.0017865 -0.0048877 0.0010535
vn 0.5888782 -0.7618464 -0.2698381
v -0.0016278 -0.0044646 -0.0022509
vn 0.5857940 -0.7793406 -0.2224268
v -0.0016934 -0.0046394 -0.0018642
vn 0.5843286 -0.7926644 -0.1739061
v -0.0017463 -0.0047808 -0.0014641
vn 0.5972300 -0.7340487 -0.3232473
v -0.0015501 -0.0042576 -0.0026214
vn 0.5837402 -0.7930984 0.1739034
v -0.0017463 -0.0047808 0.0014641
vn 0.5864328 -0.7789014 0.2222820
v -0.0016934 -0.0046394 0.0018644
vn 0.5882733 -0.7622486 0.2700214
v -0.0016278 -0.0044646 0.0022511
vn 0.5919967 -0.7412942 0.3162639
v -0.0015501 -0.0042576 0.0026217
vn 0.5993548 -0.7119236 0.3659764
v -0.0014610 -0.0040199 0.0029733
vn 0.5502867 -0.6078769 0.5724248
v -0.0012794 -0.0035355 0.0035355
vn 0.6013297 0.6986474 -0.3876782
v -0.0013610 0.0037534 -0.0033033
vn 0.5514489 0.6086773 0.5704526
v -0.0012794 0.0035355 0.0035355
vn 0.6001704 0.7110066 0.3664220
v -0.0014610 0.0040200 0.0029733
vn 0.5829442 0.8028919 0.1246624
v -0.0017865 0.0048878 0.0010535
vn 0.5813196 0.8102064 0.0750542
v -0.0018133 0.0049596 0.0006351
vn 0.5814606 0.8131946 0.0248655
v -0.0018269 0.0049955 0.0002123
vn 0.5808184 0.8136511 -0.0249410
v -0.0018269 0.0049955 -0.0002122
vn 0.5818757 0.8098214 -0.0748998
v -0.0018133 0.0049596 -0.0006350
vn 0.5882975 0.7622282 0.2700265
v -0.0016278 0.0044647 0.0022511
vn 0.5864359 0.7789038 0.2222653
v -0.0016934 0.0046395 0.0018644
vn 0.5836979 0.7931083 0.1740003
v -0.0017463 0.0047809 0.0014641
vn 0.5823600 0.8032951 -0.1247953
v -0.0017865 0.0048878 -0.0010533
vn 0.5843495 0.7926695 -0.1738123
v -0.0017463 0.0047809 -0.0014641
vn 0.5857942 0.7793356 -0.2224440
v -0.0016934 0.0046395 -0.0018642
vn 0.5919626 0.7413249 0.3162557
v -0.0015501 0.0042577 0.0026217
vn 0.5889837 0.7617570 -0.2698603
v -0.0016278 0.0044647 -0.0022509
vn 0.5973155 0.7339700 -0.3232680
v -0.0015501 0.0042577 -0.0026214
vn 0.6005002 0.4065331 0.6885713
v -0.0013072 0.0034597 0.0036099
vn 0.6003874 -0.4064423 0.6887232
v -0.0013072 -0.0034596 0.0036099
vn 0.5813984 0.0001236 0.8136191
v -0.0018286 0.0000000 0.0050000
vn 0.5809880 0.0499922 0.8123754
v -0.0018218 0.0004240 0.0049821
vn 0.5824022 0.0999684 0.8067305
v -0.0018016 0.0008451 0.0049281
vn 0.5830709 -0.1492734 0.7985899
v -0.0017680 -0.0012599 0.0048387
vn 0.5823885 -0.0998378 0.8067566
v -0.0018016 -0.0008450 0.0049281
vn 0.5809686 -0.0501290 0.8123809
v -0.0018218 -0.0004239 0.0049821
vn 0.5905347 -0.2929688 0.7519562
v -0.0015904 -0.0024384 0.0043651
vn 0.5869772 -0.2463636 0.7712086
v -0.0016620 -0.0020595 0.0045562
vn 0.5853494 -0.1983255 0.7861508
v -0.0017214 -0.0016656 0.0047145
vn 0.5829757 0.1493074 0.7986530
v -0.0017680 0.0012599 0.0048387
vn 0.5853651 0.1981903 0.7861732
v -0.0017214 0.0016658 0.0047145
vn 0.5869634 0.2464328 0.7711970
v -0.0016620 0.0020596 0.0045562
vn 0.5987514 -0.3457077 0.7224839
v -0.0015069 -0.0027997 0.0041426
vn 0.5904213 0.2931409 0.7519782
v -0.0015904 0.0024385 0.0043651
vn 0.5990229 0.3454976 0.7223594
v -0.0015069 0.0028000 0.0041426
vn -0.8430172 -0.3749981 -0.3856145
v -0.0013862 -0.0035355 -0.0035355
vn -0.7902318 -0.5087017 -0.3416963
v -0.0015191 -0.0031410 -0.0038902
vn -0.7902345 0.5087142 -0.3416714
v -0.0015191 0.0031412 -0.0038902
vn -0.8429741 0.3750394 -0.3856685
v -0.0013862 0.0035355 -0.0035355
vn -0.8264136 -0.1477905 -0.5433218
v -0.0019084 -0.0008450 -0.0049280
vn -0.9570158 -0.0442068 -0.2866471
v -0.0019286 -0.0004239 -0.0049819
vn -0.8298403 0.0000469 -0.5580009
v -0.0019352 0.0000000 -0.0050000
vn -0.9569825 0.0442371 -0.2867537
v -0.0019286 0.0004240 -0.0049819
vn -0.8459793 -0.3136749 -0.4311927
v -0.0017688 -0.0020595 -0.0045562
vn -0.8197093 -0.3010631 -0.4872759
v -0.0018282 -0.0016656 -0.0047144
vn -0.8750548 -0.1889927 -0.4456018
v -0.0018748 -0.0012599 -0.0048386
vn -0.8264562 0.1476856 -0.5432855
v -0.0019084 0.0008451 -0.0049280
vn -0.8750191 0.1890055 -0.4456663
v -0.0018748 0.0012599 -0.0048386
vn -0.8171172 0.2877637 -0.4995114
v -0.0018282 0.0016658 -0.0047144
vn -0.8039725 -0.4269266 -0.4139588
v -0.0016972 -0.0024384 -0.0043650
vn -0.8312305 0.3352684 -0.4434536
v -0.0017688 0.0020596 -0.0045562
vn -0.8040107 0.4270328 -0.4137750
v -0.0016972 0.0024385 -0.0043650
vn -0.7845500 -0.3267345 -0.5269971
v -0.0014678 -0.0037533 -0.0033033
vn -0.8410381 -0.3970155 0.3674692
v -0.0013862 -0.0035355 0.0035355
vn -0.7896230 -0.3510565 0.5032444
v -0.0015678 -0.0040199 0.0029733
vn -0.8919333 -0.4264347 0.1503611
v -0.0018933 -0.0048877 0.0010535
vn -0.8279939 -0.5495920 0.1112422
v -0.0019201 -0.0049595 0.0006351
vn -0.9720737 -0.2338625 0.0195204
v -0.0019337 -0.0049955 0.0002123
vn -0.8295706 -0.5571545 -0.0373041
v -0.0019337 -0.0049955 -0.0002122
vn -0.9355269 -0.3450336 -0.0757711
v -0.0019201 -0.0049595 -0.0006350
vn -0.8088450 -0.4365620 0.3939333
v -0.0017346 -0.0044646 0.0022511
vn -0.8557628 -0.4360788 0.2783979
v -0.0018002 -0.0046394 0.0018644
vn -0.8227608 -0.5012127 0.2680493
v -0.0018531 -0.0047808 0.0014641
vn -0.8246747 -0.5349204 -0.1837709
v -0.0018933 -0.0048877 -0.0010533
vn -0.8610811 -0.4548561 -0.2272560
v -0.0018531 -0.0047808 -0.0014641
vn -0.8138874 -0.4844885 -0.3207153
v -0.0018002 -0.0046394 -0.0018642
vn -0.8210002 -0.3948146 0.4124078
v -0.0016569 -0.0042576 0.0026217
vn -0.8233827 -0.4314467 -0.3686389
v -0.0017346 -0.0044646 -0.0022509
vn -0.7995263 -0.3924078 -0.4547240
v -0.0016569 -0.0042576 -0.0026214
vn -0.7845814 0.3266493 -0.5270031
v -0.0014678 0.0037534 -0.0033033
vn -0.9357859 0.3443878 -0.0755102
v -0.0019201 0.0049596 -0.0006350
vn -0.8294737 0.5572994 -0.0372948
v -0.0019337 0.0049955 -0.0002122
vn -0.8276640 0.5245388 -0.1995783
v -0.0018933 0.0048878 -0.0010533
vn -0.9718904 0.2346264 0.0194812
v -0.0019337 0.0049955 0.0002123
vn -0.8280269 0.5495278 0.1113132
v -0.0019201 0.0049596 0.0006351
vn -0.8919693 0.4263890 0.1502770
v -0.0018933 0.0048878 0.0010535
vn -0.8369462 0.4223041 -0.3481097
v -0.0017346 0.0044647 -0.0022509
vn -0.8163887 0.4717744 -0.3330742
v -0.0018002 0.0046395 -0.0018642
vn -0.8799407 0.4286132 -0.2049273
v -0.0018531 0.0047809 -0.0014641
vn -0.7995133 0.3924605 -0.4547012
v -0.0016569 0.0042577 -0.0026214
vn -0.8200033 0.5129591 0.2539047
v -0.0018531 0.0047809 0.0014641
vn -0.8397778 0.4521996 0.3004811
v -0.0018002 0.0046395 0.0018644
vn -0.8065323 0.4498365 0.3836051
v -0.0017346 0.0044647 0.0022511
vn -0.8093110 0.3992953 0.4307888
v -0.0016569 0.0042577 0.0026217
vn -0.7896327 0.3510272 0.5032496
v -0.0015678 0.0040200 0.0029733
vn -0.8409395 0.3972729 0.3674167
v -0.0013862 0.0035355 0.0035355
vn -0.7789272 -0.5444402 0.3112191
v -0.0014141 -0.0034596 0.0036099
vn -0.7789522 0.5446368 0.3108120
v -0.0014141 0.0034597 0.0036099
vn -0.9766237 0.0000050 0.2149563
v -0.0019352 0.0000000 0.0050000
vn -0.8289672 -0.0742739 0.5543436
v -0.0019286 -0.0004239 0.0049821
vn -0.9123887 -0.1118534 0.3937457
v -0.0019084 -0.0008450 0.0049281
vn -0.8253817 0.2342632 0.5136788
v -0.0018748 0.0012599 0.0048387
vn -0.9124277 0.1119874 0.3936174
v -0.0019084 0.0008451 0.0049281
vn -0.8290706 0.0741811 0.5542013
v -0.0019286 0.0004240 0.0049821
vn -0.8285657 0.3812797 0.4100057
v -0.0016972 0.0024385 0.0043651
vn -0.8126942 0.3641405 0.4548954
v -0.0017688 0.0020596 0.0045562
vn -0.8670875 0.2419489 0.4354539
v -0.0018282 0.0016658 0.0047145
vn -0.8225787 -0.2192445 0.5246868
v -0.0018748 -0.0012599 0.0048387
vn -0.8496209 -0.2645585 0.4562381
v -0.0018282 -0.0016656 0.0047145
vn -0.8103068 -0.3526724 0.4680011
v -0.0017688 -0.0020595 0.0045562
vn -0.7951356 0.4806892 0.3697261
v -0.0016137 0.0028000 0.0041426
vn -0.8161924 -0.4004526 0.4164945
v -0.0016972 -0.0024384 0.0043651
vn -0.7948194 -0.4810752 0.3699040
v -0.0016137 -0.0027997 0.0041426
vn -0.6976705 -0.0000046 -0.7164188
v -0.0019535 0.0000000 -0.0050000
vn -0.6977093 -0.1222406 -0.7058747
v -0.0019535 -0.0008450 -0.0049280
vn -1.0000000 0.0000000 0.0000000
v -0.0019535 0.0000000 0.0000000
vn -0.6929545 0.3615007 -0.6238040
v -0.0019535 0.0024385 -0.0043650
vn -0.6975018 0.2407561 -0.6749280
v -0.0019535 0.0016658 -0.0047144
vn -0.6977026 0.1222610 -0.7058777
v -0.0019535 0.0008451 -0.0049280
vn -0.6927491 0.6092682 -0.3858640
v -0.0019535 0.0042577 -0.0026214
vn -0.6920762 0.5459483 -0.4721980
v -0.0019535 0.0037534 -0.0033033
vn -0.6912452 0.4496453 -0.5656847
v -0.0019535 0.0031412 -0.0038902
vn -0.6977243 0.7157113 -0.0306303
v -0.0019535 0.0049955 -0.0002122
vn -0.6930966 0.7014557 -0.1660635
v -0.0019535 0.0048878 -0.0010533
vn -0.6930364 0.6642054 -0.2802349
v -0.0019535 0.0046395 -0.0018642
vn -0.6970910 0.6390477 0.3250878
v -0.0019535 0.0044647 0.0022511
vn -0.6975950 0.6845118 0.2116719
v -0.0019535 0.0047809 0.0014641
vn -0.6976545 0.7105210 0.0918585
v -0.0019535 0.0049596 0.0006351
vn -0.6925802 0.4106962 0.5930104
v -0.0019535 0.0028000 0.0041426
vn -0.6906941 0.4980994 0.5242506
v -0.0019535 0.0034597 0.0036099
vn -0.6936225 0.5748693 0.4340659
v -0.0019535 0.0040200 0.0029733
vn -0.6976683 0.0613379 0.7137904
v -0.0019535 0.0004240 0.0049821
vn -0.6930653 0.1954086 0.6938847
v -0.0019535 0.0012599 0.0048387
vn -0.6930279 0.3075588 0.6520122
v -0.0019535 0.0020596 0.0045562
vn -0.6973009 -0.2975265 0.6521116
v -0.0019535 -0.0020595 0.0045562
vn -0.6976110 -0.1821930 0.6929247
v -0.0019535 -0.0012599 0.0048387
vn -0.6976695 -0.0613414 0.7137889
v -0.0019535 -0.0004239 0.0049821
vn -0.6934031 -0.5762755 0.4325491
v -0.0019535 -0.0040199 0.0029733
vn -0.6907195 -0.4980561 0.5242583
v -0.0019535 -0.0034596 0.0036099
vn -0.6927621 -0.4121069 0.5918180
v -0.0019535 -0.0027997 0.0041426
vn -0.6976860 -0.7104778 0.0919549
v -0.0019535 -0.0049595 0.0006351
vn -0.6930904 -0.6850523 0.2243415
v -0.0019535 -0.0047808 0.0014641
vn -0.6929359 -0.6388413 0.3342478
v -0.0019535 -0.0044646 0.0022511
vn -0.6973942 -0.6641272 -0.2694002
v -0.0019535 -0.0046394 -0.0018642
vn -0.6976795 -0.7000110 -0.1524071
v -0.0019535 -0.0048877 -0.0010533
vn -0.6976930 -0.7157375 -0.0307300
v -0.0019535 -0.0049955 -0.0002122
vn -0.6912432 -0.4496613 -0.5656745
v -0.0019535 -0.0031410 -0.0038902
vn -0.6920985 -0.5459687 -0.4721419
v -0.0019535 -0.0037533 -0.0033033
vn -0.6928637 -0.6083365 -0.3871262
v -0.0019535 -0.0042576 -0.0026214
vn -0.6930697 -0.2528636 -0.6750663
v -0.0019535 -0.0016656 -0.0047144
vn -0.6928682 -0.3603637 -0.6245573
v -0.0019535 -0.0024384 -0.0043650
vn 0.6885079 0.4555775 -0.5642747
v 0.0000465 0.0031412 -0.0038902
vn 0.6901327 0.3550346 -0.6306087
v 0.0000465 0.0024385 -0.0043650
vn 0.6901535 -0.6149374 -0.3814972
v 0.0000465 -0.0042576 -0.0026214
vn 0.6904632 -0.5449369 -0.4757147
v 0.0000465 -0.0037533 -0.0033033
vn 0.6902302 -0.4523964 -0.5647299
v 0.0000465 -0.0031410 -0.0038902
vn 0.6916645 -0.6701966 -0.2691409
v 0.0000465 -0.0046394 -0.0018642
vn 0.6915556 -0.7061252 -0.1521125
v 0.0000465 -0.0048877 -0.0010533
vn 0.6914762 -0.7217482 -0.0306656
v 0.0000465 -0.0049955 -0.0002122
vn 0.6914984 -0.7165288 0.0917417
v 0.0000465 -0.0049595 0.0006351
vn 0.6916128 -0.6906468 0.2113734
v 0.0000465 -0.0047808 0.0014641
vn 0.6917619 -0.6448966 0.3249214
v 0.0000465 -0.0044646 0.0022511
vn 0.6909133 -0.5804591 0.4309362
v 0.0000465 -0.0040199 0.0029733
vn 0.6901751 -0.4072685 0.5981562
v 0.0000465 -0.0027997 0.0041426
vn 0.6895292 -0.5001409 0.5238402
v 0.0000465 -0.0034596 0.0036099
vn 0.6917422 -0.2973175 0.6580996
v 0.0000465 -0.0020595 0.0045562
vn 0.6915509 -0.1819316 0.6990410
v 0.0000465 -0.0012599 0.0048387
vn 0.6914852 -0.0612199 0.7197919
v 0.0000465 -0.0004239 0.0049821
vn 0.6914833 0.0612275 0.7197931
v 0.0000465 0.0004240 0.0049821
vn 0.6915612 0.1819196 0.6990339
v 0.0000465 0.0012599 0.0048387
vn 0.6917335 0.2973150 0.6581099
v 0.0000465 0.0020596 0.0045562
vn 0.6888631 0.5014682 0.5234475
v 0.0000465 0.0034597 0.0036099
vn 0.6901696 0.4072646 0.5981652
v 0.0000465 0.0028000 0.0041426
vn 0.6902013 0.5802601 0.4323429
v 0.0000465 0.0040200 0.0029733
vn 0.6917619 0.6448966 0.3249214
v 0.0000465 0.0044647 0.0022511
vn 0.6916128 0.6906468 0.2113733
v 0.0000465 0.0047809 0.0014641
vn 0.6914782 0.7165555 0.0916854
v 0.0000465 0.0049596 0.0006351
vn 0.6915066 0.7217197 -0.0306500
v 0.0000465 0.0049955 -0.0002122
vn 0.6915454 0.7061440 -0.1520713
v 0.0000465 0.0048878 -0.0010533
vn 0.6916645 0.6701966 -0.2691409
v 0.0000465 0.0046395 -0.0018642
vn 0.6901535 0.6149375 -0.3814972
v 0.0000465 0.0042577 -0.0026214
vn 0.6892524 0.5441275 -0.4783894
v 0.0000465 0.0037534 -0.0033033
vn 0.6916223 0.2404828 -0.6810482
v 0.0000465 0.0016658 -0.0047144
vn 0.6915389 0.1220263 -0.7119576
v 0.0000465 0.0008451 -0.0049280
vn 0.6914574 -0.0000050 -0.7224173
v 0.0000465 0.0000000 -0.0050000
vn 0.6915423 -0.1220258 -0.7119544
v 0.0000465 -0.0008450 -0.0049280
vn 0.6916290 -0.2404673 -0.6810469
v 0.0000465 -0.0016656 -0.0047144
vn 0.6901240 -0.3550171 -0.6306280
v 0.0000465 -0.0024384 -0.0043650
vn 1.0000000 0.0000000 0.0000000
v 0.0000465 0.0000000 0.0000000
# 220 vertices, 0 vertices normals

f 1//1 2//2 3//3
f 3//3 2//2 4//4
f 3//3 4//4 5//5
f 5//5 4//4 6//6
f 5//5 6//6 7//7
f 7//7 6//6 8//8
f 7//7 8//8 1//1
f 1//1 8//8 2//2
f 9//9 10//10 4//4
f 2//2 11//11 12//12
f 13//13 14//14 4//4
f 4//4 14//14 15//15
f 4//4 15//15 16//16
f 17//17 18//18 4//4
f 4//4 18//18 19//19
f 4//4 19//19 13//13
f 16//16 20//20 4//4
f 4//4 20//20 21//21
f 4//4 21//21 22//22
f 2//2 12//12 4//4
f 4//4 12//12 23//23
f 4//4 23//23 17//17
f 22//22 24//24 4//4
f 4//4 24//24 25//25
f 4//4 25//25 9//9
f 4//4 10//10 26//26
f 27//27 28//28 6//6
f 27//27 6//6 29//29
f 28//28 30//30 6//6
f 6//6 30//30 31//31
f 6//6 31//31 32//32
f 33//33 34//34 6//6
f 6//6 34//34 35//35
f 6//6 35//35 29//29
f 4//4 26//26 6//6
f 6//6 26//26 36//36
f 6//6 36//36 33//33
f 32//32 37//37 6//6
f 6//6 37//37 38//38
f 6//6 38//38 39//39
f 39//39 40//40 6//6
f 6//6 40//40 41//41
f 6//6 41//41 42//42
f 43//43 11//11 2//2
f 8//8 44//44 45//45
f 46//46 47//47 2//2
f 47//47 48//48 2//2
f 2//2 48//48 49//49
f 2//2 49//49 50//50
f 51//51 52//52 2//2
f 2//2 52//52 53//53
f 2//2 53//53 46//46
f 50//50 54//54 2//2
f 2//2 54//54 55//55
f 2//2 55//55 56//56
f 8//8 45//45 2//2
f 2//2 45//45 57//57
f 2//2 57//57 51//51
f 56//56 58//58 2//2
f 2//2 58//58 59//59
f 2//2 59//59 43//43
f 60//60 44//44 8//8
f 6//6 42//42 61//61
f 62//62 63//63 8//8
f 8//8 63//63 64//64
f 65//65 66//66 8//8
f 8//8 66//66 67//67
f 8//8 67//67 62//62
f 68//68 69//69 8//8
f 8//8 69//69 70//70
f 8//8 70//70 65//65
f 64//64 71//71 8//8
f 8//8 71//71 72//72
f 8//8 72//72 73//73
f 6//6 61//61 8//8
f 8//8 61//61 74//74
f 8//8 74//74 68//68
f 73//73 75//75 8//8
f 8//8 75//75 76//76
f 8//8 76//76 60//60
f 3//3 77//77 78//78
f 79//79 80//80 1//1
f 81//81 82//82 1//1
f 1//1 82//82 83//83
f 1//1 83//83 84//84
f 85//85 86//86 1//1
f 1//1 86//86 87//87
f 1//1 87//87 81//81
f 84//84 88//88 1//1
f 1//1 88//88 89//89
f 1//1 89//89 90//90
f 3//3 78//78 1//1
f 1//1 78//78 91//91
f 1//1 91//91 85//85
f 90//90 92//92 1//1
f 1//1 92//92 93//93
f 1//1 93//93 79//79
f 94//94 77//77 3//3
f 5//5 95//95 96//96
f 97//97 98//98 3//3
f 98//98 99//99 3//3
f 3//3 99//99 100//100
f 3//3 100//100 101//101
f 102//102 103//103 3//3
f 3//3 103//103 104//104
f 3//3 104//104 97//97
f 101//101 105//105 3//3
f 3//3 105//105 106//106
f 3//3 106//106 107//107
f 5//5 96//96 3//3
f 3//3 96//96 108//108
f 3//3 108//108 102//102
f 107//107 109//109 3//3
f 3//3 109//109 110//110
f 3//3 110//110 94//94
f 1//1 80//80 111//111
f 112//112 113//113 7//7
f 112//112 7//7 114//114
f 113//113 115//115 7//7
f 7//7 115//115 116//116
f 7//7 116//116 117//117
f 118//118 119//119 7//7
f 7//7 119//119 120//120
f 7//7 120//120 114//114
f 1//1 111//111 7//7
f 7//7 111//111 121//121
f 7//7 121//121 118//118
f 117//117 122//122 7//7
f 7//7 122//122 123//123
f 7//7 123//123 124//124
f 124//124 125//125 7//7
f 7//7 125//125 126//126
f 7//7 126//126 127//127
f 128//128 95//95 5//5
f 7//7 127//127 129//129
f 130//130 131//131 5//5
f 5//5 131//131 132//132
f 133//133 134//134 5//5
f 5//5 134//134 135//135
f 5//5 135//135 130//130
f 136//136 137//137 5//5
f 5//5 137//137 138//138
f 5//5 138//138 133//133
f 132//132 139//139 5//5
f 5//5 139//139 140//140
f 5//5 140//140 141//141
f 7//7 129//129 5//5
f 5//5 129//129 142//142
f 5//5 142//142 136//136
f 141//141 143//143 5//5
f 5//5 143//143 144//144
f 5//5 144//144 128//128
f 145//145 146//146 147//147
f 148//148 149//149 147//147
f 147//147 149//149 150//150
f 147//147 150//150 145//145
f 151//151 152//152 147//147
f 147//147 152//152 153//153
f 147//147 153//153 148//148
f 154//154 155//155 147//147
f 147//147 155//155 156//156
f 147//147 156//156 151//151
f 157//157 158//158 147//147
f 147//147 158//158 159//159
f 147//147 159//159 154//154
f 160//160 161//161 147//147
f 147//147 161//161 162//162
f 147//147 162//162 157//157
f 163//163 164//164 147//147
f 147//147 164//164 165//165
f 147//147 165//165 160//160
f 166//166 167//167 147//147
f 147//147 167//167 168//168
f 147//147 168//168 163//163
f 169//169 170//170 147//147
f 147//147 170//170 171//171
f 147//147 171//171 166//166
f 172//172 173//173 147//147
f 147//147 173//173 174//174
f 147//147 174//174 169//169
f 175//175 176//176 147//147
f 147//147 176//176 177//177
f 147//147 177//177 172//172
f 178//178 179//179 147//147
f 147//147 179//179 180//180
f 147//147 180//180 175//175
f 146//146 181//181 147//147
f 147//147 181//181 182//182
f 147//147 182//182 178//178
f 138//138 137//137 165//165
f 162//162 161//161 127//127
f 127//127 161//161 129//129
f 129//129 161//161 160//160
f 129//129 160//160 142//142
f 165//165 137//137 160//160
f 160//160 137//137 136//136
f 160//160 136//136 142//142
f 138//138 165//165 133//133
f 133//133 165//165 164//164
f 133//133 164//164 134//134
f 134//134 164//164 163//163
f 134//134 163//163 135//135
f 135//135 163//163 130//130
f 130//130 163//163 168//168
f 130//130 168//168 131//131
f 131//131 168//168 132//132
f 132//132 168//168 167//167
f 132//132 167//167 139//139
f 139//139 167//167 140//140
f 140//140 167//167 166//166
f 140//140 166//166 141//141
f 141//141 166//166 143//143
f 143//143 166//166 171//171
f 143//143 171//171 144//144
f 144//144 171//171 170//170
f 144//144 170//170 128//128
f 128//128 170//170 95//95
f 95//95 170//170 169//169
f 95//95 169//169 96//96
f 174//174 102//102 169//169
f 169//169 102//102 108//108
f 169//169 108//108 96//96
f 172//172 97//97 173//173
f 173//173 97//97 104//104
f 173//173 104//104 174//174
f 174//174 104//104 103//103
f 174//174 103//103 102//102
f 177//177 99//99 172//172
f 172//172 99//99 98//98
f 172//172 98//98 97//97
f 176//176 101//101 177//177
f 177//177 101//101 100//100
f 177//177 100//100 99//99
f 175//175 106//106 176//176
f 176//176 106//106 105//105
f 176//176 105//105 101//101
f 179//179 110//110 180//180
f 180//180 110//110 109//109
f 180//180 109//109 175//175
f 175//175 109//109 107//107
f 175//175 107//107 106//106
f 85//85 91//91 182//182
f 182//182 91//91 78//78
f 182//182 78//78 178//178
f 178//178 78//78 77//77
f 178//178 77//77 179//179
f 179//179 77//77 94//94
f 179//179 94//94 110//110
f 85//85 182//182 86//86
f 86//86 182//182 181//181
f 86//86 181//181 87//87
f 87//87 181//181 146//146
f 87//87 146//146 81//81
f 81//81 146//146 82//82
f 82//82 146//146 145//145
f 82//82 145//145 83//83
f 83//83 145//145 84//84
f 84//84 145//145 150//150
f 84//84 150//150 88//88
f 88//88 150//150 89//89
f 89//89 150//150 149//149
f 89//89 149//149 90//90
f 90//90 149//149 92//92
f 92//92 149//149 148//148
f 92//92 148//148 93//93
f 93//93 148//148 153//153
f 93//93 153//153 79//79
f 79//79 153//153 80//80
f 80//80 153//153 152//152
f 80//80 152//152 111//111
f 111//111 152//152 151//151
f 111//111 151//151 121//121
f 156//156 119//119 151//151
f 151//151 119//119 118//118
f 151//151 118//118 121//121
f 154//154 112//112 155//155
f 155//155 112//112 114//114
f 155//155 114//114 156//156
f 156//156 114//114 120//120
f 156//156 120//120 119//119
f 159//159 115//115 154//154
f 154//154 115//115 113//113
f 154//154 113//113 112//112
f 158//158 117//117 159//159
f 159//159 117//117 116//116
f 159//159 116//116 115//115
f 157//157 123//123 158//158
f 158//158 123//123 122//122
f 158//158 122//122 117//117
f 127//127 126//126 162//162
f 162//162 126//126 125//125
f 162//162 125//125 157//157
f 157//157 125//125 124//124
f 157//157 124//124 123//123
f 12//12 183//183 184//184
f 185//185 26//26 186//186
f 186//186 26//26 10//10
f 186//186 10//10 187//187
f 188//188 33//33 185//185
f 185//185 33//33 36//36
f 185//185 36//36 26//26
f 189//189 35//35 188//188
f 188//188 35//35 34//34
f 188//188 34//34 33//33
f 190//190 27//27 189//189
f 189//189 27//27 29//29
f 189//189 29//29 35//35
f 191//191 30//30 190//190
f 190//190 30//30 28//28
f 190//190 28//28 27//27
f 192//192 32//32 191//191
f 191//191 32//32 31//31
f 191//191 31//31 30//30
f 193//193 38//38 192//192
f 192//192 38//38 37//37
f 192//192 37//37 32//32
f 194//194 40//40 193//193
f 193//193 40//40 39//39
f 193//193 39//39 38//38
f 195//195 61//61 196//196
f 196//196 61//61 42//42
f 196//196 42//42 194//194
f 194//194 42//42 41//41
f 194//194 41//41 40//40
f 197//197 68//68 195//195
f 195//195 68//68 74//74
f 195//195 74//74 61//61
f 198//198 70//70 197//197
f 197//197 70//70 69//69
f 197//197 69//69 68//68
f 199//199 66//66 198//198
f 198//198 66//66 65//65
f 198//198 65//65 70//70
f 200//200 62//62 199//199
f 199//199 62//62 67//67
f 199//199 67//67 66//66
f 201//201 64//64 200//200
f 200//200 64//64 63//63
f 200//200 63//63 62//62
f 202//202 72//72 201//201
f 201//201 72//72 71//71
f 201//201 71//71 64//64
f 44//44 60//60 203//203
f 203//203 60//60 76//76
f 203//203 76//76 204//204
f 204//204 76//76 75//75
f 204//204 75//75 202//202
f 202//202 75//75 73//73
f 202//202 73//73 72//72
f 44//44 203//203 45//45
f 45//45 203//203 205//205
f 45//45 205//205 57//57
f 57//57 205//205 206//206
f 57//57 206//206 51//51
f 51//51 206//206 52//52
f 52//52 206//206 207//207
f 52//52 207//207 53//53
f 53//53 207//207 46//46
f 46//46 207//207 208//208
f 46//46 208//208 47//47
f 47//47 208//208 48//48
f 48//48 208//208 209//209
f 48//48 209//209 49//49
f 49//49 209//209 50//50
f 50//50 209//209 210//210
f 50//50 210//210 54//54
f 54//54 210//210 55//55
f 55//55 210//210 211//211
f 55//55 211//211 56//56
f 56//56 211//211 58//58
f 58//58 211//211 212//212
f 58//58 212//212 59//59
f 59//59 212//212 213//213
f 59//59 213//213 43//43
f 183//183 12//12 213//213
f 213//213 12//12 11//11
f 213//213 11//11 43//43
f 214//214 17//17 184//184
f 184//184 17//17 23//23
f 184//184 23//23 12//12
f 215//215 19//19 214//214
f 214//214 19//19 18//18
f 214//214 18//18 17//17
f 216//216 14//14 215//215
f 215//215 14//14 13//13
f 215//215 13//13 19//19
f 217//217 16//16 216//216
f 216//216 16//16 15//15
f 216//216 15//15 14//14
f 218//218 21//21 217//217
f 217//217 21//21 20//20
f 217//217 20//20 16//16
f 10//10 9//9 187//187
f 187//187 9//9 25//25
f 187//187 25//25 219//219
f 219//219 25//25 24//24
f 219//219 24//24 218//218
f 218//218 24//24 22//22
f 218//218 22//22 21//21
f 216//216 215//215 220//220
f 219//219 218//218 220//220
f 220//220 218//218 217//217
f 220//220 217//217 216//216
f 185//185 186//186 220//220
f 220//220 186//186 187//187
f 220//220 187//187 219//219
f 190//190 189//189 220//220
f 220//220 189//189 188//188
f 220//220 188//188 185//185
f 193//193 192//192 220//220
f 220//220 192//192 191//191
f 220//220 191//191 190//190
f 195//195 196//196 220//220
f 220//220 196//196 194//194
f 220//220 194//194 193//193
f 199//199 198//198 220//220
f 220//220 198//198 197//197
f 220//220 197//197 195//195
f 202//202 201//201 220//220
f 220//220 201//201 200//200
f 220//220 200//200 199//199
f 205//205 203//203 220//220
f 220//220 203//203 204//204
f 220//220 204//204 202//202
f 208//208 207//207 220//220
f 220//220 207//207 206//206
f 220//220 206//206 205//205
f 211//211 210//210 220//220
f 220//220 210//210 209//209
f 220//220 209//209 208//208
f 183//183 213//213 220//220
f 220//220 213//213 212//212
f 220//220 212//212 211//211
f 215//215 214//214 220//220
f 220//220 214//214 184//184
f 220//220 184//184 183//183
# 436 faces, 0 coords texture

# End of File
