####
#
# OBJ File Generated by Meshlab
#
####
# Object 80deg.obj
#
# Vertices: 131
# Faces: 256
#
####
vn -0.9989116 -0.0329812 0.0329812
v -0.3201534 1.1996121 -1.1996119
vn -0.0671908 0.7055088 -0.7055088
v -0.3201534 1.2000000 -1.2000000
vn -0.9989116 0.0329812 0.0329812
v -0.3201534 -1.1996119 -1.1996119
vn -0.0671908 -0.7055088 -0.7055088
v -0.3201534 -1.2000000 -1.2000000
vn -0.9989116 0.0329812 -0.0329812
v -0.3201534 -1.1996119 1.1996121
vn -0.0671908 -0.7055088 0.7055088
v -0.3201534 -1.2000000 1.2000000
vn -0.9989116 -0.0329812 -0.0329812
v -0.3201534 1.1996121 1.1996121
vn -0.0671908 0.7055088 0.7055088
v -0.3201534 1.2000000 1.2000000
vn 1.0000000 0.0000000 0.0000000
v -0.0001535 0.0000000 0.0000000
vn -1.0000000 0.0000000 0.0000000
v -0.0002570 0.0000000 0.0000000
vn 0.6954834 -0.0000044 -0.7185422
v -0.0001535 0.0000000 -0.0050000
vn -0.6955447 0.0751016 -0.7145470
v -0.0021535 0.0005227 -0.0049726
vn 0.6955447 0.0751016 -0.7145470
v -0.0001535 0.0005227 -0.0049726
vn -0.6954959 0.1493545 -0.7028363
v -0.0021535 0.0010395 -0.0048907
vn 0.6954959 0.1493545 -0.7028363
v -0.0001535 0.0010395 -0.0048907
vn -0.6955000 0.2221064 -0.6833363
v -0.0021535 0.0015452 -0.0047553
vn 0.6955001 0.2221064 -0.6833363
v -0.0001535 0.0015452 -0.0047553
vn -0.6955419 0.2922635 -0.6563563
v -0.0021535 0.0020337 -0.0045676
vn 0.6955419 0.2922635 -0.6563563
v -0.0001535 0.0020337 -0.0045676
vn -0.6955116 0.3592160 -0.6222761
v -0.0021535 0.0025001 -0.0043300
vn 0.6955116 0.3592160 -0.6222761
v -0.0001535 0.0025001 -0.0043300
vn -0.6955130 0.4223058 -0.5813085
v -0.0021535 0.0029390 -0.0040450
vn 0.6955130 0.4223058 -0.5813085
v -0.0001535 0.0029390 -0.0040450
vn -0.6955107 0.4807711 -0.5339701
v -0.0021535 0.0033457 -0.0037156
vn 0.6955107 0.4807711 -0.5339701
v -0.0001535 0.0033457 -0.0037156
vn -0.6955107 0.5339700 -0.4807712
v -0.0021535 0.0037159 -0.0033456
vn 0.6955107 0.5339701 -0.4807712
v -0.0001535 0.0037159 -0.0033456
vn -0.6955267 0.5812709 -0.4223349
v -0.0021535 0.0040451 -0.0029389
vn 0.6955268 0.5812709 -0.4223349
v -0.0001535 0.0040451 -0.0029389
vn -0.6954978 0.6222648 -0.3592622
v -0.0021535 0.0043302 -0.0024999
vn 0.6954978 0.6222648 -0.3592622
v -0.0001535 0.0043302 -0.0024999
vn -0.6955327 0.6563767 -0.2922396
v -0.0021535 0.0045677 -0.0020337
vn 0.6955327 0.6563767 -0.2922396
v -0.0001535 0.0045677 -0.0020337
vn -0.6954913 0.6833720 -0.2220241
v -0.0021535 0.0047554 -0.0015451
vn 0.6954912 0.6833720 -0.2220241
v -0.0001535 0.0047554 -0.0015451
vn -0.6955349 0.7027971 -0.1493568
v -0.0021535 0.0048908 -0.0010395
vn 0.6955349 0.7027971 -0.1493568
v -0.0001535 0.0048908 -0.0010395
vn -0.6954995 0.7145915 -0.0750966
v -0.0021535 0.0049727 -0.0005226
vn 0.6954995 0.7145915 -0.0750966
v -0.0001535 0.0049727 -0.0005226
vn -0.6955341 0.7184931 -0.0000044
v -0.0021535 0.0050000 0.0000000
vn 0.6955342 0.7184930 -0.0000044
v -0.0001535 0.0050000 0.0000000
vn -0.6954942 0.7145957 0.0751058
v -0.0021535 0.0049727 0.0005227
vn 0.6954943 0.7145956 0.0751058
v -0.0001535 0.0049727 0.0005227
vn -0.6955454 0.7027889 0.1493463
v -0.0021535 0.0048908 0.0010395
vn 0.6955454 0.7027889 0.1493463
v -0.0001535 0.0048908 0.0010395
vn -0.6954755 0.6833838 0.2220367
v -0.0021535 0.0047554 0.0015452
vn 0.6954755 0.6833838 0.2220367
v -0.0001535 0.0047554 0.0015452
vn -0.6955419 0.6563563 0.2922635
v -0.0021535 0.0045677 0.0020337
vn 0.6955419 0.6563563 0.2922635
v -0.0001535 0.0045677 0.0020337
vn -0.6955116 0.6222761 0.3592160
v -0.0021535 0.0043302 0.0025001
vn 0.6955116 0.6222761 0.3592160
v -0.0001535 0.0043302 0.0025001
vn -0.6955130 0.5813085 0.4223057
v -0.0021535 0.0040451 0.0029390
vn 0.6955130 0.5813085 0.4223057
v -0.0001535 0.0040451 0.0029390
vn -0.6955107 0.5339701 0.4807712
v -0.0021535 0.0037159 0.0033457
vn 0.6955107 0.5339701 0.4807711
v -0.0001535 0.0037159 0.0033457
vn -0.6955107 0.4807712 0.5339700
v -0.0021535 0.0033457 0.0037159
vn 0.6955107 0.4807711 0.5339701
v -0.0001535 0.0033457 0.0037159
vn -0.6955130 0.4223058 0.5813085
v -0.0021535 0.0029390 0.0040451
vn 0.6955130 0.4223058 0.5813085
v -0.0001535 0.0029390 0.0040451
vn -0.6955116 0.3592160 0.6222761
v -0.0021535 0.0025001 0.0043302
vn 0.6955116 0.3592160 0.6222761
v -0.0001535 0.0025001 0.0043302
vn -0.6955419 0.2922635 0.6563563
v -0.0021535 0.0020337 0.0045677
vn 0.6955419 0.2922635 0.6563563
v -0.0001535 0.0020337 0.0045677
vn -0.6954755 0.2220367 0.6833838
v -0.0021535 0.0015452 0.0047554
vn 0.6954755 0.2220367 0.6833838
v -0.0001535 0.0015452 0.0047554
vn -0.6955454 0.1493463 0.7027889
v -0.0021535 0.0010395 0.0048908
vn 0.6955454 0.1493463 0.7027889
v -0.0001535 0.0010395 0.0048908
vn -0.6954943 0.0751058 0.7145956
v -0.0021535 0.0005227 0.0049727
vn 0.6954942 0.0751058 0.7145957
v -0.0001535 0.0005227 0.0049727
vn -0.6955342 -0.0000044 0.7184930
v -0.0021535 0.0000000 0.0050000
vn 0.6955341 -0.0000044 0.7184931
v -0.0001535 0.0000000 0.0050000
vn -0.6954995 -0.0750966 0.7145915
v -0.0021535 -0.0005226 0.0049727
vn 0.6954995 -0.0750966 0.7145915
v -0.0001535 -0.0005226 0.0049727
vn -0.6955349 -0.1493568 0.7027971
v -0.0021535 -0.0010395 0.0048908
vn 0.6955349 -0.1493568 0.7027971
v -0.0001535 -0.0010395 0.0048908
vn -0.6954912 -0.2220241 0.6833720
v -0.0021535 -0.0015451 0.0047554
vn 0.6954913 -0.2220241 0.6833720
v -0.0001535 -0.0015451 0.0047554
vn -0.6955327 -0.2922396 0.6563767
v -0.0021535 -0.0020337 0.0045677
vn 0.6955327 -0.2922396 0.6563767
v -0.0001535 -0.0020337 0.0045677
vn -0.6954978 -0.3592622 0.6222648
v -0.0021535 -0.0024999 0.0043302
vn 0.6954978 -0.3592622 0.6222648
v -0.0001535 -0.0024999 0.0043302
vn -0.6955268 -0.4223349 0.5812709
v -0.0021535 -0.0029389 0.0040451
vn 0.6955268 -0.4223348 0.5812709
v -0.0001535 -0.0029389 0.0040451
vn -0.6955107 -0.4807711 0.5339701
v -0.0021535 -0.0033456 0.0037159
vn 0.6955107 -0.4807711 0.5339701
v -0.0001535 -0.0033456 0.0037159
vn -0.6955107 -0.5339700 0.4807712
v -0.0021535 -0.0037156 0.0033457
vn 0.6955107 -0.5339701 0.4807712
v -0.0001535 -0.0037156 0.0033457
vn -0.6955130 -0.5813085 0.4223057
v -0.0021535 -0.0040450 0.0029390
vn 0.6955130 -0.5813085 0.4223057
v -0.0001535 -0.0040450 0.0029390
vn -0.6955116 -0.6222761 0.3592160
v -0.0021535 -0.0043300 0.0025001
vn 0.6955116 -0.6222761 0.3592160
v -0.0001535 -0.0043300 0.0025001
vn -0.6955419 -0.6563563 0.2922635
v -0.0021535 -0.0045676 0.0020337
vn 0.6955419 -0.6563563 0.2922635
v -0.0001535 -0.0045676 0.0020337
vn -0.6955001 -0.6833363 0.2221064
v -0.0021535 -0.0047553 0.0015452
vn 0.6955001 -0.6833363 0.2221064
v -0.0001535 -0.0047553 0.0015452
vn -0.6954959 -0.7028363 0.1493545
v -0.0021535 -0.0048907 0.0010395
vn 0.6954959 -0.7028363 0.1493545
v -0.0001535 -0.0048907 0.0010395
vn -0.6955447 -0.7145470 0.0751016
v -0.0021535 -0.0049726 0.0005227
vn 0.6955447 -0.7145470 0.0751016
v -0.0001535 -0.0049726 0.0005227
vn -0.6954834 -0.7185422 -0.0000044
v -0.0021535 -0.0050000 0.0000000
vn 0.6954834 -0.7185422 -0.0000044
v -0.0001535 -0.0050000 0.0000000
vn -0.6955499 -0.7145428 -0.0750924
v -0.0021535 -0.0049726 -0.0005226
vn 0.6955500 -0.7145428 -0.0750924
v -0.0001535 -0.0049726 -0.0005226
vn -0.6954854 -0.7028444 -0.1493650
v -0.0021535 -0.0048907 -0.0010395
vn 0.6954854 -0.7028444 -0.1493650
v -0.0001535 -0.0048907 -0.0010395
vn -0.6955159 -0.6833243 -0.2220938
v -0.0021535 -0.0047553 -0.0015451
vn 0.6955158 -0.6833244 -0.2220937
v -0.0001535 -0.0047553 -0.0015451
vn -0.6955327 -0.6563767 -0.2922396
v -0.0021535 -0.0045676 -0.0020337
vn 0.6955327 -0.6563767 -0.2922396
v -0.0001535 -0.0045676 -0.0020337
vn -0.6954978 -0.6222648 -0.3592622
v -0.0021535 -0.0043300 -0.0024999
vn 0.6954978 -0.6222648 -0.3592622
v -0.0001535 -0.0043300 -0.0024999
vn -0.6955268 -0.5812709 -0.4223349
v -0.0021535 -0.0040450 -0.0029389
vn 0.6955267 -0.5812709 -0.4223349
v -0.0001535 -0.0040450 -0.0029389
vn -0.6955107 -0.5339701 -0.4807712
v -0.0021535 -0.0037156 -0.0033456
vn 0.6955107 -0.5339701 -0.4807711
v -0.0001535 -0.0037156 -0.0033456
vn -0.6955107 -0.4807712 -0.5339700
v -0.0021535 -0.0033456 -0.0037156
vn 0.6955107 -0.4807711 -0.5339701
v -0.0001535 -0.0033456 -0.0037156
vn -0.6955268 -0.4223348 -0.5812709
v -0.0021535 -0.0029389 -0.0040450
vn 0.6955268 -0.4223349 -0.5812709
v -0.0001535 -0.0029389 -0.0040450
vn -0.6954978 -0.3592622 -0.6222648
v -0.0021535 -0.0024999 -0.0043300
vn 0.6954978 -0.3592622 -0.6222648
v -0.0001535 -0.0024999 -0.0043300
vn -0.6955327 -0.2922396 -0.6563767
v -0.0021535 -0.0020337 -0.0045676
vn 0.6955327 -0.2922396 -0.6563767
v -0.0001535 -0.0020337 -0.0045676
vn -0.6955158 -0.2220937 -0.6833244
v -0.0021535 -0.0015451 -0.0047553
vn 0.6955159 -0.2220938 -0.6833243
v -0.0001535 -0.0015451 -0.0047553
vn -0.6954854 -0.1493650 -0.7028444
v -0.0021535 -0.0010395 -0.0048907
vn 0.6954854 -0.1493650 -0.7028444
v -0.0001535 -0.0010395 -0.0048907
vn -0.6955500 -0.0750924 -0.7145428
v -0.0021535 -0.0005226 -0.0049726
vn 0.6955499 -0.0750924 -0.7145428
v -0.0001535 -0.0005226 -0.0049726
vn -0.6954834 -0.0000044 -0.7185422
v -0.0021535 0.0000000 -0.0050000
vn -1.0000000 0.0000000 0.0000000
v -0.0021535 0.0000000 0.0000000
# 131 vertices, 0 vertices normals

f 1//1 2//2 3//3
f 3//3 2//2 4//4
f 3//3 4//4 5//5
f 5//5 4//4 6//6
f 5//5 6//6 7//7
f 7//7 6//6 8//8
f 7//7 8//8 1//1
f 1//1 8//8 2//2
f 9//9 4//4 2//2
f 9//9 6//6 4//4
f 9//9 2//2 8//8
f 9//9 8//8 6//6
f 1//1 3//3 10//10
f 3//3 5//5 10//10
f 7//7 1//1 10//10
f 5//5 7//7 10//10
f 11//11 12//12 13//13
f 13//13 12//12 14//14
f 13//13 14//14 15//15
f 15//15 14//14 16//16
f 15//15 16//16 17//17
f 17//17 16//16 18//18
f 17//17 18//18 19//19
f 19//19 18//18 20//20
f 19//19 20//20 21//21
f 21//21 20//20 22//22
f 21//21 22//22 23//23
f 23//23 22//22 24//24
f 23//23 24//24 25//25
f 25//25 24//24 26//26
f 25//25 26//26 27//27
f 27//27 26//26 28//28
f 27//27 28//28 29//29
f 29//29 28//28 30//30
f 29//29 30//30 31//31
f 31//31 30//30 32//32
f 31//31 32//32 33//33
f 33//33 32//32 34//34
f 33//33 34//34 35//35
f 35//35 34//34 36//36
f 35//35 36//36 37//37
f 37//37 36//36 38//38
f 37//37 38//38 39//39
f 39//39 38//38 40//40
f 39//39 40//40 41//41
f 41//41 40//40 42//42
f 41//41 42//42 43//43
f 43//43 42//42 44//44
f 43//43 44//44 45//45
f 45//45 44//44 46//46
f 45//45 46//46 47//47
f 47//47 46//46 48//48
f 47//47 48//48 49//49
f 49//49 48//48 50//50
f 49//49 50//50 51//51
f 51//51 50//50 52//52
f 51//51 52//52 53//53
f 53//53 52//52 54//54
f 53//53 54//54 55//55
f 55//55 54//54 56//56
f 55//55 56//56 57//57
f 57//57 56//56 58//58
f 57//57 58//58 59//59
f 59//59 58//58 60//60
f 59//59 60//60 61//61
f 61//61 60//60 62//62
f 61//61 62//62 63//63
f 63//63 62//62 64//64
f 63//63 64//64 65//65
f 65//65 64//64 66//66
f 65//65 66//66 67//67
f 67//67 66//66 68//68
f 67//67 68//68 69//69
f 69//69 68//68 70//70
f 69//69 70//70 71//71
f 71//71 70//70 72//72
f 71//71 72//72 73//73
f 73//73 72//72 74//74
f 73//73 74//74 75//75
f 75//75 74//74 76//76
f 75//75 76//76 77//77
f 77//77 76//76 78//78
f 77//77 78//78 79//79
f 79//79 78//78 80//80
f 79//79 80//80 81//81
f 81//81 80//80 82//82
f 81//81 82//82 83//83
f 83//83 82//82 84//84
f 83//83 84//84 85//85
f 85//85 84//84 86//86
f 85//85 86//86 87//87
f 87//87 86//86 88//88
f 87//87 88//88 89//89
f 89//89 88//88 90//90
f 89//89 90//90 91//91
f 91//91 90//90 92//92
f 91//91 92//92 93//93
f 93//93 92//92 94//94
f 93//93 94//94 95//95
f 95//95 94//94 96//96
f 95//95 96//96 97//97
f 97//97 96//96 98//98
f 97//97 98//98 99//99
f 99//99 98//98 100//100
f 99//99 100//100 101//101
f 101//101 100//100 102//102
f 101//101 102//102 103//103
f 103//103 102//102 104//104
f 103//103 104//104 105//105
f 105//105 104//104 106//106
f 105//105 106//106 107//107
f 107//107 106//106 108//108
f 107//107 108//108 109//109
f 109//109 108//108 110//110
f 109//109 110//110 111//111
f 111//111 110//110 112//112
f 111//111 112//112 113//113
f 113//113 112//112 114//114
f 113//113 114//114 115//115
f 115//115 114//114 116//116
f 115//115 116//116 117//117
f 117//117 116//116 118//118
f 117//117 118//118 119//119
f 119//119 118//118 120//120
f 119//119 120//120 121//121
f 121//121 120//120 122//122
f 121//121 122//122 123//123
f 123//123 122//122 124//124
f 123//123 124//124 125//125
f 125//125 124//124 126//126
f 125//125 126//126 127//127
f 127//127 126//126 128//128
f 127//127 128//128 129//129
f 129//129 128//128 130//130
f 129//129 130//130 11//11
f 11//11 130//130 12//12
f 14//14 12//12 131//131
f 131//131 12//12 130//130
f 131//131 130//130 128//128
f 20//20 18//18 131//131
f 131//131 18//18 16//16
f 131//131 16//16 14//14
f 26//26 24//24 131//131
f 131//131 24//24 22//22
f 131//131 22//22 20//20
f 32//32 30//30 131//131
f 131//131 30//30 28//28
f 131//131 28//28 26//26
f 38//38 36//36 131//131
f 131//131 36//36 34//34
f 131//131 34//34 32//32
f 44//44 42//42 131//131
f 131//131 42//42 40//40
f 131//131 40//40 38//38
f 50//50 48//48 131//131
f 131//131 48//48 46//46
f 131//131 46//46 44//44
f 56//56 54//54 131//131
f 131//131 54//54 52//52
f 131//131 52//52 50//50
f 62//62 60//60 131//131
f 131//131 60//60 58//58
f 131//131 58//58 56//56
f 68//68 66//66 131//131
f 131//131 66//66 64//64
f 131//131 64//64 62//62
f 74//74 72//72 131//131
f 131//131 72//72 70//70
f 131//131 70//70 68//68
f 80//80 78//78 131//131
f 131//131 78//78 76//76
f 131//131 76//76 74//74
f 86//86 84//84 131//131
f 131//131 84//84 82//82
f 131//131 82//82 80//80
f 92//92 90//90 131//131
f 131//131 90//90 88//88
f 131//131 88//88 86//86
f 98//98 96//96 131//131
f 131//131 96//96 94//94
f 131//131 94//94 92//92
f 104//104 102//102 131//131
f 131//131 102//102 100//100
f 131//131 100//100 98//98
f 110//110 108//108 131//131
f 131//131 108//108 106//106
f 131//131 106//106 104//104
f 116//116 114//114 131//131
f 131//131 114//114 112//112
f 131//131 112//112 110//110
f 122//122 120//120 131//131
f 131//131 120//120 118//118
f 131//131 118//118 116//116
f 128//128 126//126 131//131
f 131//131 126//126 124//124
f 131//131 124//124 122//122
f 127//127 129//129 9//9
f 9//9 129//129 11//11
f 9//9 11//11 13//13
f 121//121 123//123 9//9
f 9//9 123//123 125//125
f 9//9 125//125 127//127
f 115//115 117//117 9//9
f 9//9 117//117 119//119
f 9//9 119//119 121//121
f 109//109 111//111 9//9
f 9//9 111//111 113//113
f 9//9 113//113 115//115
f 103//103 105//105 9//9
f 9//9 105//105 107//107
f 9//9 107//107 109//109
f 97//97 99//99 9//9
f 9//9 99//99 101//101
f 9//9 101//101 103//103
f 91//91 93//93 9//9
f 9//9 93//93 95//95
f 9//9 95//95 97//97
f 85//85 87//87 9//9
f 9//9 87//87 89//89
f 9//9 89//89 91//91
f 79//79 81//81 9//9
f 9//9 81//81 83//83
f 9//9 83//83 85//85
f 73//73 75//75 9//9
f 9//9 75//75 77//77
f 9//9 77//77 79//79
f 67//67 69//69 9//9
f 9//9 69//69 71//71
f 9//9 71//71 73//73
f 61//61 63//63 9//9
f 9//9 63//63 65//65
f 9//9 65//65 67//67
f 55//55 57//57 9//9
f 9//9 57//57 59//59
f 9//9 59//59 61//61
f 49//49 51//51 9//9
f 9//9 51//51 53//53
f 9//9 53//53 55//55
f 43//43 45//45 9//9
f 9//9 45//45 47//47
f 9//9 47//47 49//49
f 37//37 39//39 9//9
f 9//9 39//39 41//41
f 9//9 41//41 43//43
f 31//31 33//33 9//9
f 9//9 33//33 35//35
f 9//9 35//35 37//37
f 25//25 27//27 9//9
f 9//9 27//27 29//29
f 9//9 29//29 31//31
f 19//19 21//21 9//9
f 9//9 21//21 23//23
f 9//9 23//23 25//25
f 13//13 15//15 9//9
f 9//9 15//15 17//17
f 9//9 17//17 19//19
# 256 faces, 0 coords texture

# End of File
