####
#
# OBJ File Generated by Meshlab
#
####
# Object 85deg.obj
#
# Vertices: 166
# Faces: 328
#
####
vn -0.9997573 -0.0155888 0.0155675
v -0.1499534 1.1991940 -1.1991937
vn -0.0267978 0.7073085 -0.7063969
v -0.1499534 1.2000000 -1.2000000
vn -0.9997571 0.0155778 0.0155935
v -0.1499534 -1.1991937 -1.1991937
vn -0.0410600 -0.7070559 -0.7059646
v -0.1499534 -1.2000000 -1.2000000
vn -0.9997574 0.0155947 -0.0155547
v -0.1499534 -1.1991937 1.1991940
vn -0.0371547 -0.7062042 0.7070327
v -0.1499534 -1.2000000 1.2000000
vn -0.9997568 -0.0155969 -0.0155926
v -0.1499534 1.1991940 1.1991940
vn -0.0384272 0.7067426 0.7064264
v -0.1499534 1.2000000 1.2000000
vn 0.6825289 0.0000156 -0.7308586
v -0.0005785 0.0000000 -0.0050000
vn 0.6829959 -0.1084906 -0.7223202
v -0.0005695 -0.0008450 -0.0049280
vn 0.6844845 -0.2143844 -0.6967929
v -0.0005428 -0.0016656 -0.0047144
vn 0.6869757 0.3152952 -0.6547163
v -0.0004991 0.0024385 -0.0043650
vn 0.6844714 0.2144350 -0.6967902
v -0.0005428 0.0016658 -0.0047144
vn 0.6830053 0.1084615 -0.7223157
v -0.0005695 0.0008451 -0.0049280
vn 0.6869280 -0.3153318 -0.6547487
v -0.0004991 -0.0024384 -0.0043650
vn 0.6860783 -0.4033096 -0.6055064
v -0.0004397 -0.0031410 -0.0038902
vn 0.6706799 -0.5183505 -0.5305668
v -0.0003954 -0.0035355 -0.0035355
vn 0.6897306 0.4067440 -0.5990251
v -0.0004397 0.0031412 -0.0038902
vn 0.6813293 0.5026425 -0.5321100
v -0.0003954 0.0035355 -0.0035355
vn 0.6825660 -0.7303166 -0.0272261
v -0.0005779 -0.0049955 -0.0002122
vn 0.6827912 -0.7260536 0.0815004
v -0.0005734 -0.0049595 0.0006351
vn 0.6840053 -0.7047547 0.1883018
v -0.0005511 -0.0047808 0.0014641
vn 0.6877136 -0.6417260 -0.3394670
v -0.0004857 -0.0042576 -0.0026214
vn 0.6850205 -0.6877854 -0.2402045
v -0.0005334 -0.0046394 -0.0018642
vn 0.6832412 -0.7175452 -0.1353159
v -0.0005644 -0.0048877 -0.0010533
vn 0.6862499 -0.6667519 0.2906941
v -0.0005116 -0.0044646 0.0022511
vn 0.6879588 -0.6156203 0.3843492
v -0.0004560 -0.0040199 0.0029733
vn 0.6665891 -0.5440625 0.5095635
v -0.0003954 -0.0035355 0.0035355
vn 0.6842345 -0.5947188 -0.4220577
v -0.0004226 -0.0037533 -0.0033033
vn 0.6825361 0.7303437 -0.0272522
v -0.0005779 0.0049955 -0.0002122
vn 0.6832754 0.7175275 -0.1352372
v -0.0005644 0.0048878 -0.0010533
vn 0.6850316 0.6877714 -0.2402132
v -0.0005334 0.0046395 -0.0018642
vn 0.6862691 0.6667449 0.2906647
v -0.0005116 0.0044647 0.0022511
vn 0.6839792 0.7047736 0.1883261
v -0.0005511 0.0047809 0.0014641
vn 0.6828198 0.7260320 0.0814537
v -0.0005734 0.0049596 0.0006351
vn 0.6876711 0.6417536 -0.3395009
v -0.0004857 0.0042577 -0.0026214
vn 0.6842632 0.5946451 -0.4221151
v -0.0004226 0.0037534 -0.0033033
vn 0.6891725 0.6135013 0.3855611
v -0.0004560 0.0040200 0.0029733
vn 0.6684370 0.5453358 0.5057676
v -0.0003954 0.0035355 0.0035355
vn 0.6826131 -0.0543987 0.7287525
v -0.0005762 -0.0004239 0.0049821
vn 0.6826360 0.0543930 0.7287315
v -0.0005762 0.0004240 0.0049821
vn 0.6836422 0.1619262 0.7116272
v -0.0005583 0.0012599 0.0048387
vn 0.6855751 0.2656631 0.6777979
v -0.0005230 0.0020596 0.0045562
vn 0.6884990 -0.3631332 0.6277766
v -0.0004713 -0.0027997 0.0041426
vn 0.6855729 -0.2656841 0.6777919
v -0.0005230 -0.0020595 0.0045562
vn 0.6836521 -0.1619124 0.7116209
v -0.0005583 -0.0012599 0.0048387
vn 0.6884989 0.3631332 0.6277767
v -0.0004713 0.0028000 0.0041426
vn 0.6825927 0.4408027 0.5828897
v -0.0004047 0.0034597 0.0036099
vn 0.6824744 -0.4406722 0.5831267
v -0.0004047 -0.0034596 0.0036099
vn -0.7681194 0.0000079 -0.6403066
v -0.0006792 0.0000000 -0.0050000
vn -0.7672861 0.1251420 -0.6289766
v -0.0006703 0.0008451 -0.0049280
vn -0.7650917 0.2458256 -0.5951508
v -0.0006435 0.0016658 -0.0047144
vn -0.7613664 -0.3579089 -0.5405760
v -0.0005999 -0.0024384 -0.0043650
vn -0.7651095 -0.2457669 -0.5951521
v -0.0006435 -0.0016656 -0.0047144
vn -0.7672768 -0.1251871 -0.6289790
v -0.0006703 -0.0008450 -0.0049280
vn -0.7614118 0.3578723 -0.5405363
v -0.0005999 0.0024385 -0.0043650
vn -0.7535717 0.4506784 -0.4785590
v -0.0005405 0.0031412 -0.0038902
vn -0.7649032 0.4503342 -0.4605673
v -0.0004961 0.0035355 -0.0035355
vn -0.7535717 -0.4506691 -0.4785678
v -0.0005405 -0.0031410 -0.0038902
vn -0.7649413 -0.4503585 -0.4604804
v -0.0004961 -0.0035355 -0.0035355
vn -0.7680386 -0.6396296 -0.0314757
v -0.0006787 -0.0049955 -0.0002122
vn -0.7668816 -0.6225650 -0.1559022
v -0.0006652 -0.0048877 -0.0010533
vn -0.7642893 -0.5834049 -0.2747738
v -0.0006342 -0.0046394 -0.0018642
vn -0.7624545 -0.5560446 0.3308742
v -0.0006123 -0.0044646 0.0022511
vn -0.7657759 -0.6056551 0.2162617
v -0.0006519 -0.0047808 0.0014641
vn -0.7676556 -0.6339123 0.0941285
v -0.0006742 -0.0049595 0.0006351
vn -0.7603168 -0.5238363 -0.3840754
v -0.0005865 -0.0042576 -0.0026214
vn -0.7502119 -0.4656976 -0.4693697
v -0.0005234 -0.0037533 -0.0033033
vn -0.7568823 -0.4908039 0.4315563
v -0.0005566 -0.0040199 0.0029733
vn -0.7645503 -0.4706740 0.4403736
v -0.0004961 -0.0035355 0.0035355
vn -0.7679988 0.6396760 -0.0315069
v -0.0006787 0.0049955 -0.0002122
vn -0.7676818 0.6338860 0.0940912
v -0.0006742 0.0049596 0.0006351
vn -0.7657505 0.6056784 0.2162865
v -0.0006519 0.0047809 0.0014641
vn -0.7602784 0.5238677 -0.3841085
v -0.0005865 0.0042577 -0.0026214
vn -0.7642961 0.5833899 -0.2747869
v -0.0006342 0.0046395 -0.0018642
vn -0.7669142 0.6225460 -0.1558177
v -0.0006652 0.0048878 -0.0010533
vn -0.7624739 0.5560359 0.3308438
v -0.0006123 0.0044647 0.0022511
vn -0.7568997 0.4907537 0.4315827
v -0.0005566 0.0040200 0.0029733
vn -0.7644349 0.4709430 0.4402862
v -0.0004961 0.0035355 0.0035355
vn -0.7502421 0.4656095 -0.4694089
v -0.0005234 0.0037534 -0.0033033
vn -0.7591529 0.4094237 0.5060228
v -0.0005720 0.0028000 0.0041426
vn -0.7634068 0.3031792 0.5703442
v -0.0006237 0.0020596 0.0045562
vn -0.7663684 0.1863261 0.6147861
v -0.0006590 0.0012599 0.0048387
vn -0.7679039 0.0628132 0.6374780
v -0.0006770 0.0004240 0.0049821
vn -0.7678879 -0.0628273 0.6374958
v -0.0006770 -0.0004239 0.0049821
vn -0.7663799 -0.1863090 0.6147771
v -0.0006590 -0.0012599 0.0048387
vn -0.7634034 -0.3032013 0.5703369
v -0.0006237 -0.0020595 0.0045562
vn -0.7469558 0.4877857 0.4517988
v -0.0005054 0.0034597 0.0036099
vn -0.7591529 -0.4094238 0.5060229
v -0.0005720 -0.0027997 0.0041426
vn -0.7468926 -0.4876068 0.4520962
v -0.0005054 -0.0034596 0.0036099
vn -0.6884831 -0.0000044 -0.7252524
v -0.0019534 0.0000000 -0.0050000
vn -0.6885287 -0.1225780 -0.7147747
v -0.0019534 -0.0008450 -0.0049280
vn -1.0000000 0.0000000 0.0000000
v -0.0019534 0.0000000 0.0000000
vn -0.6885218 0.3536972 -0.6331162
v -0.0019534 0.0024385 -0.0043650
vn -0.6884907 0.2416122 -0.6838159
v -0.0019534 0.0016658 -0.0047144
vn -0.6885274 0.1225739 -0.7147767
v -0.0019534 0.0008451 -0.0049280
vn -0.6885195 0.6175401 -0.3802436
v -0.0019534 0.0042577 -0.0026214
vn -0.6902992 0.5448598 -0.4760407
v -0.0019534 0.0037534 -0.0033033
vn -0.6901230 0.4526193 -0.5646824
v -0.0019534 0.0031412 -0.0038902
vn -0.6885273 0.7245561 -0.0308010
v -0.0019534 0.0049955 -0.0002122
vn -0.6885071 0.7089609 -0.1527499
v -0.0019534 0.0048878 -0.0010533
vn -0.6884949 0.6729418 -0.2704147
v -0.0019534 0.0046395 -0.0018642
vn -0.6884941 0.6475933 0.3264948
v -0.0019534 0.0044647 0.0022511
vn -0.6885229 0.6934285 0.2123516
v -0.0019534 0.0047809 0.0014641
vn -0.6884883 0.7193761 0.0920970
v -0.0019534 0.0049596 0.0006351
vn -0.6885090 0.4060972 0.6008664
v -0.0019534 0.0028000 0.0041426
vn -0.6894310 0.5003049 0.5238129
v -0.0019534 0.0034597 0.0036099
vn -0.6891779 0.5832323 0.4299697
v -0.0019534 0.0040200 0.0029733
vn -0.6885083 0.0615018 0.7226160
v -0.0019534 0.0004240 0.0049821
vn -0.6885017 0.1827598 0.7018293
v -0.0019534 0.0012599 0.0048387
vn -0.6885149 0.2987325 0.6608375
v -0.0019534 0.0020596 0.0045562
vn -0.6885200 -0.2987464 0.6608260
v -0.0019534 -0.0020595 0.0045562
vn -0.6884940 -0.1827699 0.7018342
v -0.0019534 -0.0012599 0.0048387
vn -0.6885109 -0.0614928 0.7226143
v -0.0019534 -0.0004239 0.0049821
vn -0.6891857 -0.5832342 0.4299546
v -0.0019534 -0.0040199 0.0029733
vn -0.6894418 -0.5002873 0.5238155
v -0.0019534 -0.0034596 0.0036099
vn -0.6885090 -0.4060972 0.6008664
v -0.0019534 -0.0027997 0.0041426
vn -0.6885037 -0.7193551 0.0921469
v -0.0019534 -0.0049595 0.0006351
vn -0.6885229 -0.6934285 0.2123516
v -0.0019534 -0.0047808 0.0014641
vn -0.6884941 -0.6475933 0.3264948
v -0.0019534 -0.0044646 0.0022511
vn -0.6884949 -0.6729418 -0.2704147
v -0.0019534 -0.0046394 -0.0018642
vn -0.6885222 -0.7089359 -0.1527975
v -0.0019534 -0.0048877 -0.0010533
vn -0.6884968 -0.7245851 -0.0308019
v -0.0019534 -0.0049955 -0.0002122
vn -0.6901174 -0.4526444 -0.5646690
v -0.0019534 -0.0031410 -0.0038902
vn -0.6903155 -0.5448772 -0.4759971
v -0.0019534 -0.0037533 -0.0033033
vn -0.6885195 -0.6175401 -0.3802437
v -0.0019534 -0.0042576 -0.0026214
vn -0.6884969 -0.2415900 -0.6838174
v -0.0019534 -0.0016656 -0.0047144
vn -0.6885154 -0.3536813 -0.6331319
v -0.0019534 -0.0024384 -0.0043650
vn 0.6904408 0.4992698 0.5234703
v 0.0000466 0.0034597 0.0036099
vn 0.6885090 0.4060972 0.6008664
v 0.0000466 0.0028000 0.0041426
vn 0.6885149 0.2987325 0.6608375
v 0.0000466 0.0020596 0.0045562
vn 0.6885017 0.1827598 0.7018293
v 0.0000466 0.0012599 0.0048387
vn 0.6885083 0.0615018 0.7226160
v 0.0000466 0.0004240 0.0049821
vn 0.6885109 -0.0614928 0.7226143
v 0.0000466 -0.0004239 0.0049821
vn 0.6884940 -0.1827699 0.7018342
v 0.0000466 -0.0012599 0.0048387
vn 0.6885200 -0.2987464 0.6608260
v 0.0000466 -0.0020595 0.0045562
vn 0.6885090 -0.4060972 0.6008664
v 0.0000466 -0.0027997 0.0041426
vn 0.6912382 -0.4970858 0.5244955
v 0.0000466 -0.0034596 0.0036099
vn 0.6895702 -0.5837559 0.4286281
v 0.0000466 -0.0040199 0.0029733
vn 0.6917179 0.5447171 -0.4741411
v 0.0000466 0.0037534 -0.0033033
vn 0.6885195 0.6175401 -0.3802436
v 0.0000466 0.0042577 -0.0026214
vn 0.6884949 0.6729418 -0.2704148
v 0.0000466 0.0046395 -0.0018642
vn 0.6885071 0.7089608 -0.1527499
v 0.0000466 0.0048878 -0.0010533
vn 0.6885273 0.7245561 -0.0308010
v 0.0000466 0.0049955 -0.0002122
vn 0.6884884 0.7193761 0.0920970
v 0.0000466 0.0049596 0.0006351
vn 0.6885229 0.6934285 0.2123516
v 0.0000466 0.0047809 0.0014641
vn 0.6884941 0.6475933 0.3264948
v 0.0000466 0.0044647 0.0022511
vn 0.6885101 0.5830652 0.4312643
v 0.0000466 0.0040200 0.0029733
vn 0.6914701 -0.4488119 -0.5660716
v 0.0000466 -0.0031410 -0.0038902
vn 0.6885154 -0.3536814 -0.6331319
v 0.0000466 -0.0024384 -0.0043650
vn 0.6884969 -0.2415900 -0.6838174
v 0.0000466 -0.0016656 -0.0047144
vn 0.6885287 -0.1225780 -0.7147747
v 0.0000466 -0.0008450 -0.0049280
vn 0.6884832 -0.0000044 -0.7252523
v 0.0000466 0.0000000 -0.0050000
vn 0.6885274 0.1225739 -0.7147767
v 0.0000466 0.0008451 -0.0049280
vn 0.6884906 0.2416122 -0.6838159
v 0.0000466 0.0016658 -0.0047144
vn 0.6885218 0.3536972 -0.6331162
v 0.0000466 0.0024385 -0.0043650
vn 0.6885079 0.4555775 -0.5642747
v 0.0000466 0.0031412 -0.0038902
vn 0.6884941 -0.6475933 0.3264948
v 0.0000466 -0.0044646 0.0022511
vn 0.6885229 -0.6934285 0.2123516
v 0.0000466 -0.0047808 0.0014641
vn 0.6885037 -0.7193550 0.0921469
v 0.0000466 -0.0049595 0.0006351
vn 0.6884968 -0.7245851 -0.0308018
v 0.0000466 -0.0049955 -0.0002122
vn 0.6885223 -0.7089359 -0.1527975
v 0.0000466 -0.0048877 -0.0010533
vn 0.6884949 -0.6729418 -0.2704147
v 0.0000466 -0.0046394 -0.0018642
vn 0.6885195 -0.6175401 -0.3802437
v 0.0000466 -0.0042576 -0.0026214
vn 0.6926081 -0.5464993 -0.4707787
v 0.0000466 -0.0037533 -0.0033033
vn 1.0000000 0.0000000 0.0000000
v 0.0000466 0.0000000 0.0000000
# 166 vertices, 0 vertices normals

f 1//1 2//2 3//3
f 3//3 2//2 4//4
f 3//3 4//4 5//5
f 5//5 4//4 6//6
f 5//5 6//6 7//7
f 7//7 6//6 8//8
f 7//7 8//8 1//1
f 1//1 8//8 2//2
f 9//9 10//10 4//4
f 4//4 10//10 11//11
f 12//12 13//13 4//4
f 4//4 13//13 14//14
f 4//4 14//14 9//9
f 11//11 15//15 4//4
f 4//4 15//15 16//16
f 4//4 16//16 17//17
f 12//12 4//4 18//18
f 18//18 4//4 2//2
f 18//18 2//2 19//19
f 20//20 21//21 6//6
f 6//6 21//21 22//22
f 23//23 24//24 6//6
f 6//6 24//24 25//25
f 6//6 25//25 20//20
f 22//22 26//26 6//6
f 6//6 26//26 27//27
f 6//6 27//27 28//28
f 23//23 6//6 29//29
f 29//29 6//6 4//4
f 29//29 4//4 17//17
f 30//30 31//31 2//2
f 2//2 31//31 32//32
f 33//33 34//34 2//2
f 2//2 34//34 35//35
f 2//2 35//35 30//30
f 32//32 36//36 2//2
f 2//2 36//36 37//37
f 2//2 37//37 19//19
f 33//33 2//2 38//38
f 38//38 2//2 8//8
f 38//38 8//8 39//39
f 40//40 41//41 8//8
f 8//8 41//41 42//42
f 8//8 42//42 43//43
f 44//44 45//45 8//8
f 8//8 45//45 46//46
f 8//8 46//46 40//40
f 43//43 47//47 8//8
f 8//8 47//47 48//48
f 8//8 48//48 39//39
f 44//44 8//8 49//49
f 49//49 8//8 6//6
f 49//49 6//6 28//28
f 50//50 51//51 1//1
f 1//1 51//51 52//52
f 53//53 54//54 1//1
f 1//1 54//54 55//55
f 1//1 55//55 50//50
f 52//52 56//56 1//1
f 1//1 56//56 57//57
f 1//1 57//57 58//58
f 53//53 1//1 59//59
f 59//59 1//1 3//3
f 59//59 3//3 60//60
f 61//61 62//62 3//3
f 3//3 62//62 63//63
f 64//64 65//65 3//3
f 3//3 65//65 66//66
f 3//3 66//66 61//61
f 63//63 67//67 3//3
f 3//3 67//67 68//68
f 3//3 68//68 60//60
f 64//64 3//3 69//69
f 69//69 3//3 5//5
f 69//69 5//5 70//70
f 71//71 72//72 7//7
f 7//7 72//72 73//73
f 74//74 75//75 7//7
f 7//7 75//75 76//76
f 7//7 76//76 71//71
f 73//73 77//77 7//7
f 7//7 77//77 78//78
f 7//7 78//78 79//79
f 74//74 7//7 80//80
f 80//80 7//7 1//1
f 80//80 1//1 58//58
f 81//81 82//82 5//5
f 5//5 82//82 83//83
f 5//5 83//83 84//84
f 84//84 85//85 5//5
f 5//5 85//85 86//86
f 5//5 86//86 87//87
f 81//81 5//5 88//88
f 88//88 5//5 7//7
f 88//88 7//7 79//79
f 87//87 89//89 5//5
f 5//5 89//89 90//90
f 5//5 90//90 70//70
f 91//91 92//92 93//93
f 94//94 95//95 93//93
f 93//93 95//95 96//96
f 93//93 96//96 91//91
f 97//97 98//98 93//93
f 93//93 98//98 99//99
f 93//93 99//99 94//94
f 100//100 101//101 93//93
f 93//93 101//101 102//102
f 93//93 102//102 97//97
f 103//103 104//104 93//93
f 93//93 104//104 105//105
f 93//93 105//105 100//100
f 106//106 107//107 93//93
f 93//93 107//107 108//108
f 93//93 108//108 103//103
f 109//109 110//110 93//93
f 93//93 110//110 111//111
f 93//93 111//111 106//106
f 112//112 113//113 93//93
f 93//93 113//113 114//114
f 93//93 114//114 109//109
f 115//115 116//116 93//93
f 93//93 116//116 117//117
f 93//93 117//117 112//112
f 118//118 119//119 93//93
f 93//93 119//119 120//120
f 93//93 120//120 115//115
f 121//121 122//122 93//93
f 93//93 122//122 123//123
f 93//93 123//123 118//118
f 124//124 125//125 93//93
f 93//93 125//125 126//126
f 93//93 126//126 121//121
f 92//92 127//127 93//93
f 93//93 127//127 128//128
f 93//93 128//128 124//124
f 125//125 67//67 126//126
f 126//126 67//67 63//63
f 126//126 63//63 121//121
f 121//121 63//63 62//62
f 121//121 62//62 122//122
f 122//122 62//62 61//61
f 122//122 61//61 123//123
f 123//123 61//61 66//66
f 123//123 66//66 118//118
f 118//118 66//66 65//65
f 118//118 65//65 119//119
f 119//119 65//65 64//64
f 119//119 64//64 120//120
f 120//120 64//64 69//69
f 120//120 69//69 115//115
f 115//115 69//69 70//70
f 115//115 70//70 116//116
f 99//99 56//56 94//94
f 94//94 56//56 52//52
f 94//94 52//52 95//95
f 95//95 52//52 51//51
f 95//95 51//51 96//96
f 96//96 51//51 50//50
f 96//96 50//50 91//91
f 91//91 50//50 55//55
f 91//91 55//55 92//92
f 92//92 55//55 54//54
f 92//92 54//54 127//127
f 127//127 54//54 53//53
f 127//127 53//53 128//128
f 128//128 53//53 59//59
f 128//128 59//59 124//124
f 124//124 59//59 60//60
f 124//124 60//60 125//125
f 125//125 60//60 68//68
f 125//125 68//68 67//67
f 108//108 77//77 103//103
f 103//103 77//77 73//73
f 103//103 73//73 104//104
f 104//104 73//73 72//72
f 104//104 72//72 105//105
f 105//105 72//72 71//71
f 105//105 71//71 100//100
f 100//100 71//71 76//76
f 100//100 76//76 101//101
f 101//101 76//76 75//75
f 101//101 75//75 102//102
f 102//102 75//75 74//74
f 102//102 74//74 97//97
f 97//97 74//74 80//80
f 97//97 80//80 98//98
f 98//98 80//80 58//58
f 98//98 58//58 99//99
f 99//99 58//58 57//57
f 99//99 57//57 56//56
f 70//70 90//90 116//116
f 116//116 90//90 89//89
f 116//116 89//89 117//117
f 117//117 89//89 87//87
f 117//117 87//87 112//112
f 112//112 87//87 86//86
f 112//112 86//86 113//113
f 113//113 86//86 85//85
f 113//113 85//85 114//114
f 114//114 85//85 84//84
f 114//114 84//84 109//109
f 109//109 84//84 83//83
f 109//109 83//83 110//110
f 110//110 83//83 82//82
f 110//110 82//82 111//111
f 111//111 82//82 81//81
f 111//111 81//81 106//106
f 106//106 81//81 88//88
f 106//106 88//88 107//107
f 107//107 88//88 79//79
f 107//107 79//79 108//108
f 108//108 79//79 78//78
f 108//108 78//78 77//77
f 129//129 47//47 130//130
f 130//130 47//47 43//43
f 130//130 43//43 131//131
f 131//131 43//43 42//42
f 131//131 42//42 132//132
f 132//132 42//42 41//41
f 132//132 41//41 133//133
f 133//133 41//41 40//40
f 133//133 40//40 134//134
f 134//134 40//40 46//46
f 134//134 46//46 135//135
f 135//135 46//46 45//45
f 135//135 45//45 136//136
f 136//136 45//45 44//44
f 136//136 44//44 137//137
f 137//137 44//44 49//49
f 137//137 49//49 138//138
f 138//138 49//49 28//28
f 138//138 28//28 139//139
f 38//38 39//39 129//129
f 129//129 39//39 48//48
f 129//129 48//48 47//47
f 140//140 36//36 141//141
f 141//141 36//36 32//32
f 141//141 32//32 142//142
f 142//142 32//32 31//31
f 142//142 31//31 143//143
f 143//143 31//31 30//30
f 143//143 30//30 144//144
f 144//144 30//30 35//35
f 144//144 35//35 145//145
f 145//145 35//35 34//34
f 145//145 34//34 146//146
f 146//146 34//34 33//33
f 146//146 33//33 147//147
f 147//147 33//33 38//38
f 147//147 38//38 148//148
f 148//148 38//38 129//129
f 18//18 19//19 140//140
f 140//140 19//19 37//37
f 140//140 37//37 36//36
f 149//149 15//15 150//150
f 150//150 15//15 11//11
f 150//150 11//11 151//151
f 151//151 11//11 10//10
f 151//151 10//10 152//152
f 152//152 10//10 9//9
f 152//152 9//9 153//153
f 153//153 9//9 14//14
f 153//153 14//14 154//154
f 154//154 14//14 13//13
f 154//154 13//13 155//155
f 155//155 13//13 12//12
f 155//155 12//12 156//156
f 156//156 12//12 18//18
f 156//156 18//18 157//157
f 157//157 18//18 140//140
f 28//28 27//27 139//139
f 139//139 27//27 26//26
f 139//139 26//26 158//158
f 158//158 26//26 22//22
f 158//158 22//22 159//159
f 159//159 22//22 21//21
f 159//159 21//21 160//160
f 160//160 21//21 20//20
f 160//160 20//20 161//161
f 161//161 20//20 25//25
f 161//161 25//25 162//162
f 162//162 25//25 24//24
f 162//162 24//24 163//163
f 163//163 24//24 23//23
f 163//163 23//23 164//164
f 164//164 23//23 29//29
f 164//164 29//29 165//165
f 165//165 29//29 17//17
f 165//165 17//17 149//149
f 149//149 17//17 16//16
f 149//149 16//16 15//15
f 153//153 154//154 166//166
f 150//150 151//151 166//166
f 166//166 151//151 152//152
f 166//166 152//152 153//153
f 164//164 165//165 166//166
f 166//166 165//165 149//149
f 166//166 149//149 150//150
f 161//161 162//162 166//166
f 166//166 162//162 163//163
f 166//166 163//163 164//164
f 158//158 159//159 166//166
f 166//166 159//159 160//160
f 166//166 160//160 161//161
f 137//137 138//138 166//166
f 166//166 138//138 139//139
f 166//166 139//139 158//158
f 134//134 135//135 166//166
f 166//166 135//135 136//136
f 166//166 136//136 137//137
f 131//131 132//132 166//166
f 166//166 132//132 133//133
f 166//166 133//133 134//134
f 148//148 129//129 166//166
f 166//166 129//129 130//130
f 166//166 130//130 131//131
f 145//145 146//146 166//166
f 166//166 146//146 147//147
f 166//166 147//147 148//148
f 142//142 143//143 166//166
f 166//166 143//143 144//144
f 166//166 144//144 145//145
f 157//157 140//140 166//166
f 166//166 140//140 141//141
f 166//166 141//141 142//142
f 154//154 155//155 166//166
f 166//166 155//155 156//156
f 166//166 156//156 157//157
# 328 faces, 0 coords texture

# End of File
