####
#
# OBJ File Generated by Meshlab
#
####
# Object 45deg4.obj
#
# Vertices: 10
# Faces: 16
#
####
vn -0.9798930 -0.1410845 0.1410845
v -1.6900001 1.1998775 -1.1998774
vn -0.2856995 0.6776341 -0.6776341
v -1.6900001 1.2000000 -1.2000000
vn -0.9798930 0.1410845 0.1410845
v -1.6900001 -1.1998774 -1.1998774
vn -0.2856996 -0.6776341 -0.6776341
v -1.6900001 -1.2000000 -1.2000000
vn -0.9798930 0.1410845 -0.1410845
v -1.6900001 -1.1998774 1.1998775
vn -0.2856996 -0.6776341 0.6776341
v -1.6900001 -1.2000000 1.2000000
vn -0.9798930 -0.1410845 -0.1410845
v -1.6900001 1.1998775 1.1998775
vn -0.2856995 0.6776341 0.6776341
v -1.6900001 1.2000000 1.2000000
vn 1.0000000 0.0000000 0.0000000
v 0.0000000 0.0000000 0.0000000
vn -1.0000000 0.0000000 0.0000000
v -0.0001726 0.0000000 0.0000000
# 10 vertices, 0 vertices normals

f 1//1 2//2 3//3
f 3//3 2//2 4//4
f 3//3 4//4 5//5
f 5//5 4//4 6//6
f 5//5 6//6 7//7
f 7//7 6//6 8//8
f 7//7 8//8 1//1
f 1//1 8//8 2//2
f 9//9 4//4 2//2
f 9//9 6//6 4//4
f 9//9 2//2 8//8
f 9//9 8//8 6//6
f 1//1 3//3 10//10
f 3//3 5//5 10//10
f 7//7 1//1 10//10
f 5//5 7//7 10//10
# 16 faces, 0 coords texture

# End of File
