####
#
# OBJ File Generated by Meshlab
#
####
# Object 70deg.obj
#
# Vertices: 107
# Faces: 210
#
####
vn -0.9958957 -0.0639990 0.0639995
v -0.6399534 1.1997876 -1.1997875
vn -0.1315502 0.7009727 -0.7009507
v -0.6399534 1.2000000 -1.2000000
vn -0.9958944 0.0640215 0.0639964
v -0.6399534 -1.1997875 -1.1997875
vn -0.1315506 -0.7009507 -0.7009726
v -0.6399534 -1.2000000 -1.2000000
vn -0.9958957 0.0639990 -0.0639995
v -0.6399534 -1.1997875 1.1997876
vn -0.1308732 -0.7008249 0.7012251
v -0.6399534 -1.2000000 1.2000000
vn -0.9958957 -0.0639995 -0.0639990
v -0.6399534 1.1997876 1.1997876
vn -0.1316629 0.7009692 0.7009330
v -0.6399534 1.2000000 1.2000000
vn 0.4788953 0.6184502 -0.6230400
v -0.0018390 0.0035355 -0.0035355
vn 0.5409010 0.3573366 -0.7614044
v -0.0019534 0.0033072 -0.0037500
vn 0.5408373 -0.3574184 -0.7614112
v -0.0019534 -0.0033071 -0.0037500
vn 0.4789419 -0.6182829 -0.6231701
v -0.0018390 -0.0035355 -0.0035355
vn 0.5419456 -0.7637677 0.3506478
v -0.0019534 -0.0037500 0.0033072
vn 0.4734264 -0.6292577 0.6163620
v -0.0018390 -0.0035355 0.0035355
vn 0.5373073 -0.7620117 -0.3614403
v -0.0019534 -0.0037500 -0.0033071
vn 0.4732768 0.6294773 0.6162528
v -0.0018390 0.0035355 0.0035355
vn 0.5419171 0.7637472 0.3507365
v -0.0019534 0.0037500 0.0033072
vn 0.5552805 0.7511366 -0.3570118
v -0.0019534 0.0037500 -0.0033071
vn 0.5404982 -0.3445378 0.7675647
v -0.0019534 -0.0033071 0.0037500
vn 0.5421024 -0.4155459 0.7303743
v -0.0018785 -0.0034598 0.0036097
vn 0.5420190 0.3431920 0.7670950
v -0.0019534 0.0033072 0.0037500
vn 0.5422074 0.4156098 0.7302600
v -0.0018785 0.0034599 0.0036097
vn -0.9639066 0.0346799 0.2639725
v -0.0019534 0.0035336 -0.0035374
vn -0.8538471 0.3668526 -0.3692754
v -0.0019524 0.0035355 -0.0035355
vn -0.9637248 -0.0352863 0.2645550
v -0.0019534 -0.0035336 -0.0035374
vn -0.8656290 -0.3538795 -0.3541974
v -0.0019524 -0.0035355 -0.0035355
vn -0.8521804 -0.3723402 0.3676294
v -0.0019524 -0.0035355 0.0035355
vn -0.9640751 0.2632427 0.0355308
v -0.0019534 -0.0035374 0.0035336
vn -0.9638941 0.2638227 -0.0361366
v -0.0019534 -0.0035374 -0.0035336
vn -0.9639622 -0.2643241 0.0301598
v -0.0019534 0.0035377 0.0035336
vn -0.8395231 0.3855478 0.3828236
v -0.0019524 0.0035355 0.0035355
vn -0.9637837 -0.2649078 -0.0307379
v -0.0019534 0.0035377 -0.0035336
vn -0.9639688 0.0318279 -0.2641045
v -0.0019534 0.0035336 0.0035377
vn -0.9637920 -0.0324048 -0.2646789
v -0.0019534 -0.0035336 0.0035377
vn 0.6896924 -0.5446357 -0.4771755
v 0.0000465 -0.0037533 -0.0033033
vn 0.6896526 -0.4536957 -0.5643931
v 0.0000465 -0.0031410 -0.0038902
vn 0.6910816 -0.4997170 0.5221965
v 0.0000465 -0.0034596 0.0036099
vn 0.6899192 -0.5832044 0.4288170
v 0.0000465 -0.0040199 0.0029733
vn 0.6910735 0.4997300 0.5221947
v 0.0000465 0.0034597 0.0036099
vn 0.6894643 0.4043625 0.6009409
v 0.0000465 0.0028000 0.0041426
vn -0.6930210 -0.5884899 0.4164152
v -0.0019534 -0.0040199 0.0029733
vn -0.6884941 -0.6475933 0.3264948
v -0.0019534 -0.0044646 0.0022511
vn 0.6884941 -0.6475933 0.3264948
v 0.0000465 -0.0044646 0.0022511
vn -0.6885231 -0.6934283 0.2123516
v -0.0019534 -0.0047808 0.0014641
vn 0.6885230 -0.6934284 0.2123516
v 0.0000465 -0.0047808 0.0014641
vn -0.6885037 -0.7193551 0.0921469
v -0.0019534 -0.0049595 0.0006351
vn 0.6885037 -0.7193550 0.0921469
v 0.0000465 -0.0049595 0.0006351
vn -0.6884968 -0.7245851 -0.0308019
v -0.0019534 -0.0049955 -0.0002122
vn 0.6884968 -0.7245851 -0.0308019
v 0.0000465 -0.0049955 -0.0002122
vn -0.6885222 -0.7089359 -0.1527975
v -0.0019534 -0.0048877 -0.0010533
vn 0.6885223 -0.7089359 -0.1527975
v 0.0000465 -0.0048877 -0.0010533
vn -0.6884949 -0.6729418 -0.2704147
v -0.0019534 -0.0046394 -0.0018642
vn 0.6884949 -0.6729418 -0.2704147
v 0.0000465 -0.0046394 -0.0018642
vn -0.6885193 -0.6175402 -0.3802437
v -0.0019534 -0.0042576 -0.0026214
vn 0.6885195 -0.6175401 -0.3802436
v 0.0000465 -0.0042576 -0.0026214
vn -0.6982403 -0.5581393 -0.4482644
v -0.0019534 -0.0037533 -0.0033033
vn -0.6907165 0.3987084 0.6032763
v -0.0019534 0.0028000 0.0041426
vn -0.6885147 0.2987326 0.6608376
v -0.0019534 0.0020596 0.0045562
vn 0.6885149 0.2987325 0.6608375
v 0.0000465 0.0020596 0.0045562
vn -0.6885017 0.1827598 0.7018293
v -0.0019534 0.0012599 0.0048387
vn 0.6885017 0.1827598 0.7018293
v 0.0000465 0.0012599 0.0048387
vn -0.6885083 0.0615018 0.7226161
v -0.0019534 0.0004240 0.0049821
vn 0.6885083 0.0615018 0.7226160
v 0.0000465 0.0004240 0.0049821
vn -0.6885109 -0.0614928 0.7226143
v -0.0019534 -0.0004239 0.0049821
vn 0.6885109 -0.0614928 0.7226143
v 0.0000465 -0.0004239 0.0049821
vn -0.6884940 -0.1827699 0.7018342
v -0.0019534 -0.0012599 0.0048387
vn 0.6884940 -0.1827699 0.7018342
v 0.0000465 -0.0012599 0.0048387
vn -0.6885200 -0.2987464 0.6608260
v -0.0019534 -0.0020595 0.0045562
vn 0.6885199 -0.2987464 0.6608260
v 0.0000465 -0.0020595 0.0045562
vn -0.6907164 -0.3987085 0.6032764
v -0.0019534 -0.0027997 0.0041426
vn 0.6894643 -0.4043625 0.6009409
v 0.0000465 -0.0027997 0.0041426
vn 0.6899120 0.5832038 0.4288295
v 0.0000465 0.0040200 0.0029733
vn -0.6929970 0.5884627 0.4164935
v -0.0019534 0.0040200 0.0029733
vn 0.6884941 0.6475933 0.3264948
v 0.0000465 0.0044647 0.0022511
vn -0.6884941 0.6475933 0.3264948
v -0.0019534 0.0044647 0.0022511
vn 0.6885229 0.6934285 0.2123516
v 0.0000465 0.0047809 0.0014641
vn -0.6885230 0.6934284 0.2123516
v -0.0019534 0.0047809 0.0014641
vn 0.6884883 0.7193761 0.0920970
v 0.0000465 0.0049596 0.0006351
vn -0.6884883 0.7193761 0.0920970
v -0.0019534 0.0049596 0.0006351
vn 0.6885273 0.7245561 -0.0308010
v 0.0000465 0.0049955 -0.0002122
vn -0.6885273 0.7245561 -0.0308010
v -0.0019534 0.0049955 -0.0002122
vn 0.6885071 0.7089608 -0.1527499
v 0.0000465 0.0048878 -0.0010533
vn -0.6885071 0.7089608 -0.1527499
v -0.0019534 0.0048878 -0.0010533
vn 0.6884949 0.6729418 -0.2704147
v 0.0000465 0.0046395 -0.0018642
vn -0.6884949 0.6729418 -0.2704147
v -0.0019534 0.0046395 -0.0018642
vn 0.6885195 0.6175401 -0.3802437
v 0.0000465 0.0042577 -0.0026214
vn -0.6885195 0.6175401 -0.3802436
v -0.0019534 0.0042577 -0.0026214
vn 0.6896833 0.5446225 -0.4772036
v 0.0000465 0.0037534 -0.0033033
vn -0.6942412 0.5536640 -0.4598753
v -0.0019534 0.0037534 -0.0033033
vn -0.6952926 -0.4336407 -0.5731701
v -0.0019534 -0.0031410 -0.0038902
vn -0.6885155 -0.3536814 -0.6331319
v -0.0019534 -0.0024384 -0.0043650
vn 0.6885154 -0.3536814 -0.6331319
v 0.0000465 -0.0024384 -0.0043650
vn -0.6884969 -0.2415900 -0.6838174
v -0.0019534 -0.0016656 -0.0047144
vn 0.6884969 -0.2415899 -0.6838174
v 0.0000465 -0.0016656 -0.0047144
vn -0.6885287 -0.1225780 -0.7147747
v -0.0019534 -0.0008450 -0.0049280
vn 0.6885287 -0.1225780 -0.7147747
v 0.0000465 -0.0008450 -0.0049280
vn -0.6884831 -0.0000044 -0.7252524
v -0.0019534 0.0000000 -0.0050000
vn 0.6884831 -0.0000044 -0.7252524
v 0.0000465 0.0000000 -0.0050000
vn -0.6885273 0.1225739 -0.7147768
v -0.0019534 0.0008451 -0.0049280
vn 0.6885274 0.1225739 -0.7147767
v 0.0000465 0.0008451 -0.0049280
vn -0.6884907 0.2416122 -0.6838158
v -0.0019534 0.0016658 -0.0047144
vn 0.6884907 0.2416122 -0.6838159
v 0.0000465 0.0016658 -0.0047144
vn -0.6885217 0.3536972 -0.6331162
v -0.0019534 0.0024385 -0.0043650
vn 0.6885218 0.3536972 -0.6331162
v 0.0000465 0.0024385 -0.0043650
vn -0.6953323 0.4335137 -0.5732180
v -0.0019534 0.0031412 -0.0038902
vn 0.6896684 0.4536526 -0.5644085
v 0.0000465 0.0031412 -0.0038902
vn 1.0000000 0.0000000 0.0000000
v 0.0000465 0.0000000 0.0000000
# 107 vertices, 0 vertices normals

f 1//1 2//2 3//3
f 3//3 2//2 4//4
f 3//3 4//4 5//5
f 5//5 4//4 6//6
f 5//5 6//6 7//7
f 7//7 6//6 8//8
f 7//7 8//8 1//1
f 1//1 8//8 2//2
f 2//2 9//9 10//10
f 2//2 10//10 4//4
f 4//4 10//10 11//11
f 4//4 11//11 12//12
f 13//13 14//14 6//6
f 13//13 6//6 15//15
f 15//15 6//6 4//4
f 15//15 4//4 12//12
f 8//8 16//16 17//17
f 8//8 17//17 2//2
f 2//2 17//17 18//18
f 2//2 18//18 9//9
f 19//19 8//8 20//20
f 20//20 8//8 6//6
f 20//20 6//6 14//14
f 19//19 21//21 8//8
f 8//8 21//21 22//22
f 8//8 22//22 16//16
f 23//23 24//24 1//1
f 23//23 1//1 25//25
f 25//25 1//1 3//3
f 25//25 3//3 26//26
f 5//5 27//27 28//28
f 5//5 28//28 3//3
f 3//3 28//28 29//29
f 3//3 29//29 26//26
f 30//30 31//31 7//7
f 30//30 7//7 32//32
f 32//32 7//7 1//1
f 32//32 1//1 24//24
f 7//7 31//31 33//33
f 7//7 33//33 5//5
f 5//5 33//33 34//34
f 5//5 34//34 27//27
f 23//23 25//25 32//32
f 32//32 25//25 29//29
f 32//32 29//29 28//28
f 28//28 34//34 32//32
f 32//32 34//34 33//33
f 32//32 33//33 30//30
f 30//30 33//33 31//31
f 34//34 28//28 27//27
f 23//23 32//32 24//24
f 29//29 25//25 26//26
f 12//12 11//11 35//35
f 35//35 11//11 36//36
f 14//14 13//13 37//37
f 37//37 13//13 38//38
f 16//16 22//22 39//39
f 39//39 22//22 21//21
f 39//39 21//21 40//40
f 13//13 41//41 38//38
f 38//38 41//41 42//42
f 38//38 42//42 43//43
f 43//43 42//42 44//44
f 43//43 44//44 45//45
f 45//45 44//44 46//46
f 45//45 46//46 47//47
f 47//47 46//46 48//48
f 47//47 48//48 49//49
f 49//49 48//48 50//50
f 49//49 50//50 51//51
f 51//51 50//50 52//52
f 51//51 52//52 53//53
f 53//53 52//52 54//54
f 53//53 54//54 55//55
f 55//55 54//54 56//56
f 55//55 56//56 35//35
f 35//35 56//56 15//15
f 35//35 15//15 12//12
f 21//21 57//57 40//40
f 40//40 57//57 58//58
f 40//40 58//58 59//59
f 59//59 58//58 60//60
f 59//59 60//60 61//61
f 61//61 60//60 62//62
f 61//61 62//62 63//63
f 63//63 62//62 64//64
f 63//63 64//64 65//65
f 65//65 64//64 66//66
f 65//65 66//66 67//67
f 67//67 66//66 68//68
f 67//67 68//68 69//69
f 69//69 68//68 70//70
f 69//69 70//70 71//71
f 71//71 70//70 19//19
f 71//71 19//19 37//37
f 37//37 19//19 20//20
f 37//37 20//20 14//14
f 16//16 39//39 17//17
f 17//17 39//39 72//72
f 17//17 72//72 73//73
f 73//73 72//72 74//74
f 73//73 74//74 75//75
f 75//75 74//74 76//76
f 75//75 76//76 77//77
f 77//77 76//76 78//78
f 77//77 78//78 79//79
f 79//79 78//78 80//80
f 79//79 80//80 81//81
f 81//81 80//80 82//82
f 81//81 82//82 83//83
f 83//83 82//82 84//84
f 83//83 84//84 85//85
f 85//85 84//84 86//86
f 85//85 86//86 87//87
f 87//87 86//86 88//88
f 87//87 88//88 89//89
f 11//11 90//90 36//36
f 36//36 90//90 91//91
f 36//36 91//91 92//92
f 92//92 91//91 93//93
f 92//92 93//93 94//94
f 94//94 93//93 95//95
f 94//94 95//95 96//96
f 96//96 95//95 97//97
f 96//96 97//97 98//98
f 98//98 97//97 99//99
f 98//98 99//99 100//100
f 100//100 99//99 101//101
f 100//100 101//101 102//102
f 102//102 101//101 103//103
f 102//102 103//103 104//104
f 104//104 103//103 105//105
f 104//104 105//105 106//106
f 106//106 105//105 10//10
f 106//106 10//10 88//88
f 88//88 10//10 9//9
f 88//88 9//9 89//89
f 89//89 9//9 18//18
f 11//11 10//10 90//90
f 90//90 10//10 105//105
f 90//90 105//105 103//103
f 103//103 101//101 90//90
f 90//90 101//101 99//99
f 90//90 99//99 97//97
f 97//97 95//95 90//90
f 90//90 95//95 93//93
f 90//90 93//93 91//91
f 44//44 54//54 52//52
f 44//44 42//42 54//54
f 54//54 42//42 41//41
f 54//54 41//41 56//56
f 56//56 41//41 13//13
f 56//56 13//13 15//15
f 52//52 50//50 44//44
f 44//44 50//50 48//48
f 44//44 48//48 46//46
f 77//77 79//79 81//81
f 77//77 81//81 75//75
f 75//75 81//81 73//73
f 73//73 81//81 83//83
f 73//73 83//83 85//85
f 18//18 17//17 89//89
f 89//89 17//17 73//73
f 89//89 73//73 87//87
f 87//87 73//73 85//85
f 57//57 21//21 70//70
f 70//70 21//21 19//19
f 66//66 64//64 58//58
f 58//58 64//64 62//62
f 58//58 62//62 60//60
f 57//57 70//70 58//58
f 58//58 70//70 68//68
f 58//58 68//68 66//66
f 98//98 100//100 107//107
f 92//92 94//94 107//107
f 107//107 94//94 96//96
f 107//107 96//96 98//98
f 55//55 35//35 107//107
f 107//107 35//35 36//36
f 107//107 36//36 92//92
f 49//49 51//51 107//107
f 107//107 51//51 53//53
f 107//107 53//53 55//55
f 43//43 45//45 107//107
f 107//107 45//45 47//47
f 107//107 47//47 49//49
f 71//71 37//37 107//107
f 107//107 37//37 38//38
f 107//107 38//38 43//43
f 65//65 67//67 107//107
f 107//107 67//67 69//69
f 107//107 69//69 71//71
f 59//59 61//61 107//107
f 107//107 61//61 63//63
f 107//107 63//63 65//65
f 72//72 39//39 107//107
f 107//107 39//39 40//40
f 107//107 40//40 59//59
f 78//78 76//76 107//107
f 107//107 76//76 74//74
f 107//107 74//74 72//72
f 84//84 82//82 107//107
f 107//107 82//82 80//80
f 107//107 80//80 78//78
f 106//106 88//88 107//107
f 107//107 88//88 86//86
f 107//107 86//86 84//84
f 100//100 102//102 107//107
f 107//107 102//102 104//104
f 107//107 104//104 106//106
# 210 faces, 0 coords texture

# End of File
